<?xml version="1.0" encoding="utf-8"?>
<!-- Generator: Adobe Illustrator 16.0.0, SVG Export Plug-In . SVG Version: 6.00 Build 0)  -->
<!DOCTYPE svg PUBLIC "-//W3C//DTD SVG 1.1//EN" "http://www.w3.org/Graphics/SVG/1.1/DTD/svg11.dtd">
<svg version="1.1" id="圖層_1" xmlns="http://www.w3.org/2000/svg" xmlns:xlink="http://www.w3.org/1999/xlink" x="0px" y="0px"
	 width="36px" height="36px" viewBox="0 0 36 36" enable-background="new 0 0 36 36" xml:space="preserve">
<path fill="#FFFFFF" d="M18,0C8.059,0,0,8.059,0,18s8.059,18,18,18s18-8.059,18-18S27.941,0,18,0z M27.608,12.343
	c-0.083,0.136-0.5,0.615-0.946,1.051c-0.757,0.752-0.798,0.833-0.798,1.463c0,0.969-0.459,2.991-0.919,4.099
	c-0.852,2.077-2.676,4.223-4.5,5.303c-2.568,1.516-5.988,1.899-8.866,1.011c-0.96-0.302-2.609-1.066-2.609-1.201
	c0-0.043,0.5-0.097,1.108-0.11c1.271-0.027,2.542-0.382,3.623-1.011l0.729-0.438l-0.837-0.286c-1.189-0.41-2.257-1.353-2.527-2.241
	c-0.081-0.289-0.054-0.303,0.703-0.303l0.783-0.014l-0.662-0.313c-0.784-0.396-1.501-1.065-1.853-1.75
	c-0.257-0.491-0.58-1.733-0.486-1.83c0.027-0.04,0.311,0.041,0.636,0.149c0.932,0.344,1.054,0.262,0.514-0.313
	c-1.014-1.038-1.324-2.582-0.839-4.045l0.23-0.655l0.892,0.889c1.826,1.79,3.974,2.855,6.433,3.169l0.677,0.083l-0.04-0.671
	c-0.121-1.734,0.945-3.319,2.635-3.935c0.621-0.219,1.676-0.246,2.366-0.055c0.271,0.082,0.784,0.355,1.148,0.601l0.662,0.451
	l0.729-0.231c0.406-0.123,0.947-0.328,1.19-0.465c0.229-0.123,0.432-0.191,0.432-0.15c0,0.231-0.499,1.024-0.919,1.462
	c-0.567,0.615-0.406,0.67,0.743,0.261C27.729,12.082,27.743,12.082,27.608,12.343z"/>
</svg>
