<?xml version="1.0" encoding="utf-8"?>
<!-- Generator: Adobe Illustrator 16.0.0, SVG Export Plug-In . SVG Version: 6.00 Build 0)  -->
<!DOCTYPE svg PUBLIC "-//W3C//DTD SVG 1.1//EN" "http://www.w3.org/Graphics/SVG/1.1/DTD/svg11.dtd">
<svg version="1.1" id="圖層_1" xmlns="http://www.w3.org/2000/svg" xmlns:xlink="http://www.w3.org/1999/xlink" x="0px" y="0px"
	 width="36px" height="36px" viewBox="0 0 36 36" enable-background="new 0 0 36 36" xml:space="preserve">
<g>
	<circle fill="#FFFFFF" cx="17.854" cy="18.148" r="3.22"/>
	<path fill="#FFFFFF" d="M21.878,10.244h-8.049c-1.171,0-2.194,0.366-2.854,1.023c-0.659,0.661-1.024,1.684-1.024,2.854v8.051
		c0,1.171,0.365,2.194,1.097,2.925c0.732,0.658,1.684,1.027,2.854,1.027h7.976c1.171,0,2.194-0.369,2.854-1.027
		c0.731-0.657,1.097-1.684,1.097-2.854v-8.047c0-1.171-0.365-2.124-1.024-2.854C24.072,10.61,23.122,10.244,21.878,10.244z
		 M17.854,23.122c-2.781,0-4.977-2.268-4.977-4.975c0-2.78,2.27-4.975,4.977-4.975s5.048,2.194,5.048,4.975
		C22.902,20.925,20.635,23.122,17.854,23.122z M23.049,14.122c-0.659,0-1.171-0.51-1.171-1.171c0-0.657,0.512-1.17,1.171-1.17
		c0.658,0,1.17,0.513,1.17,1.17C24.219,13.612,23.707,14.122,23.049,14.122z"/>
	<path fill="#FFFFFF" d="M18,0C8.049,0,0,8.051,0,18c0,9.953,8.049,18,18,18c9.95,0,17.999-8.047,17.999-18
		C36.073,8.051,27.95,0,18,0z M27.585,22.243c0,1.685-0.586,3.146-1.61,4.173c-1.025,1.023-2.486,1.537-4.097,1.537h-7.976
		c-1.61,0-3.072-0.514-4.098-1.537c-1.097-1.026-1.61-2.488-1.61-4.173v-8.047c0-3.364,2.27-5.71,5.708-5.71h8.049
		c1.683,0,3.072,0.588,4.097,1.61c1.023,1.026,1.537,2.415,1.537,4.1V22.243z"/>
</g>
</svg>
