<?xml version="1.0" encoding="utf-8"?>
<!-- Generator: Adobe Illustrator 16.0.0, SVG Export Plug-In . SVG Version: 6.00 Build 0)  -->
<!DOCTYPE svg PUBLIC "-//W3C//DTD SVG 1.1//EN" "http://www.w3.org/Graphics/SVG/1.1/DTD/svg11.dtd">
<svg version="1.1" id="圖層_1" xmlns="http://www.w3.org/2000/svg" xmlns:xlink="http://www.w3.org/1999/xlink" x="0px" y="0px"
	 width="36px" height="36px" viewBox="0 0 36 36" enable-background="new 0 0 36 36" xml:space="preserve">
<g>
	<path fill="#FFFFFF" d="M23.023,15.525c-0.299-0.301-0.748-0.301-1.049,0l-4.951,4.949c-0.301,0.301-0.75,0.301-1.049,0
		l-0.449-0.449c-0.301-0.301-0.752-0.301-1.053,0l-2.699,2.699c-0.449,0.45-0.15,1.274,0.525,1.274h11.699
		c0.826,0,1.5-0.675,1.5-1.499v-4.199c0-0.226-0.074-0.376-0.225-0.525L23.023,15.525z"/>
	<path fill="#FFFFFF" d="M13.5,16.501c0.824,0,1.498-0.676,1.498-1.502c0-0.824-0.674-1.499-1.498-1.499
		c-0.826,0-1.502,0.675-1.502,1.499C11.998,15.825,12.674,16.501,13.5,16.501z"/>
	<path fill="#FFFFFF" d="M18,0C8.057,0,0,8.059,0,18s8.057,18,18,18c9.939,0,18-8.059,18-18S27.939,0,18,0z M27,22.5
		c0,1.65-1.35,3.001-3.002,3.001h-12C10.35,25.501,9,24.15,9,22.5v-9c0-1.65,1.35-3.001,2.998-3.001h12
		C25.65,10.499,27,11.85,27,13.5V22.5z"/>
</g>
</svg>
