<?xml version="1.0" encoding="utf-8"?>
<!-- Generator: Adobe Illustrator 16.0.0, SVG Export Plug-In . SVG Version: 6.00 Build 0)  -->
<!DOCTYPE svg PUBLIC "-//W3C//DTD SVG 1.1//EN" "http://www.w3.org/Graphics/SVG/1.1/DTD/svg11.dtd">
<svg version="1.1" id="圖層_1" xmlns="http://www.w3.org/2000/svg" xmlns:xlink="http://www.w3.org/1999/xlink" x="0px" y="0px"
	 width="36px" height="36px" viewBox="0 0 36 36" enable-background="new 0 0 36 36" xml:space="preserve">
<g>
	<path fill="#FFFFFF" d="M20.755,19.854h-5.527c-0.519,0-0.939,0.419-0.939,0.931c0,0.507,0.421,0.931,0.939,0.931h5.527
		c0.514,0,0.934-0.424,0.934-0.931C21.688,20.272,21.268,19.854,20.755,19.854z"/>
	<path fill="#FFFFFF" d="M18,0C8.058,0,0,8.059,0,18s8.058,18,18,18c9.94,0,18-8.059,18-18S27.94,0,18,0z M25.704,20.856
		c-0.016,2.684-2.205,4.881-4.904,4.881h-5.634c-2.699,0-4.904-2.197-4.904-4.881v-5.702c0-2.688,2.205-4.892,4.904-4.892h3.43
		c1.479,0,3.108,1.23,3.787,2.669c0.188,0.402,0.263,0.635,0.442,1.659c0.107,0.61,0.124,1.07,0.399,1.323
		c0.388,0.352,1.791,0.196,2.116,0.336c0.396,0.168,0.396,0.656,0.396,0.656L25.704,20.856z"/>
	<path fill="#FFFFFF" d="M15.228,16.125h2.72c0.519,0,0.939-0.424,0.939-0.935c0-0.513-0.421-0.931-0.939-0.931h-2.72
		c-0.519,0-0.938,0.419-0.939,0.931C14.288,15.701,14.709,16.125,15.228,16.125z"/>
</g>
</svg>
