<?xml version="1.0" encoding="utf-8"?>
<!-- Generator: Adobe Illustrator 16.0.0, SVG Export Plug-In . SVG Version: 6.00 Build 0)  -->
<!DOCTYPE svg PUBLIC "-//W3C//DTD SVG 1.1//EN" "http://www.w3.org/Graphics/SVG/1.1/DTD/svg11.dtd">
<svg version="1.1" id="圖層_1" xmlns="http://www.w3.org/2000/svg" xmlns:xlink="http://www.w3.org/1999/xlink" x="0px" y="0px"
	 width="36px" height="36px" viewBox="0 0 36 36" enable-background="new 0 0 36 36" xml:space="preserve">
<g>
	<path fill="#FFFFFF" d="M18,0C8.059,0,0,8.059,0,18s8.059,18,18,18s18-8.059,18-18S27.941,0,18,0z M26.4,22.125
		c-0.076,0.075-0.076,0.15-0.076,0.225v0.076c-0.225,0.675-0.824,1.125-1.574,1.125h0.15c0,0-3,0.449-6.9,0.449
		c-3.975,0-6.9-0.449-6.9-0.449h0.15c-0.75,0-1.35-0.45-1.576-1.125V22.35C9.6,22.275,9.6,22.2,9.6,22.125
		C9.525,21.375,9.301,19.8,9.301,18s0.225-3.375,0.299-4.125c0.074-0.075,0.074-0.15,0.074-0.225v-0.076
		c0.227-0.675,0.826-1.125,1.576-1.125H11.1c0,0,3-0.449,6.9-0.449c3.975,0,6.9,0.449,6.9,0.449h-0.15c0.75,0,1.35,0.45,1.574,1.125
		v0.076C26.4,13.725,26.4,13.8,26.4,13.875c0.148,0.75,0.299,2.325,0.299,4.125S26.475,21.375,26.4,22.125z"/>
	<path fill="#FFFFFF" d="M20.551,17.625l-3.525-2.55c-0.15-0.075-0.301-0.075-0.451,0c-0.15,0.074-0.225,0.225-0.225,0.375v5.1
		c0,0.15,0.074,0.301,0.225,0.375C16.65,21,16.725,21,16.799,21c0.076,0,0.15,0,0.227-0.075l3.525-2.55
		C20.699,18.3,20.775,18.15,20.699,18C20.699,17.85,20.625,17.7,20.551,17.625z"/>
</g>
</svg>
