<?xml version="1.0" encoding="utf-8"?>
<!-- Generator: Adobe Illustrator 16.0.0, SVG Export Plug-In . SVG Version: 6.00 Build 0)  -->
<!DOCTYPE svg PUBLIC "-//W3C//DTD SVG 1.1//EN" "http://www.w3.org/Graphics/SVG/1.1/DTD/svg11.dtd">
<svg version="1.1" id="圖層_1" xmlns="http://www.w3.org/2000/svg" xmlns:xlink="http://www.w3.org/1999/xlink" x="0px" y="0px"
	 width="557.024px" height="63.164px" viewBox="0 0 557.024 63.164" enable-background="new 0 0 557.024 63.164"
	 xml:space="preserve">
<g>
	<g>
		<path fill="#4E4D4D" d="M182.051,14.375c0,1.387-0.163,2.637-0.49,3.75c-0.328,1.113-0.815,2.06-1.464,2.842
			c-0.65,0.782-1.464,1.383-2.445,1.802c-0.981,0.42-2.125,0.629-3.432,0.629c-1.29,0-2.405-0.192-3.346-0.576
			c-0.941-0.384-1.719-0.943-2.332-1.676c-0.614-0.733-1.072-1.643-1.371-2.729c-0.3-1.086-0.451-2.336-0.451-3.749
			c0-1.352,0.163-2.58,0.491-3.684c0.327-1.104,0.816-2.042,1.47-2.815c0.653-0.773,1.471-1.369,2.451-1.789
			c0.98-0.42,2.125-0.629,3.432-0.629c1.263,0,2.363,0.189,3.299,0.57c0.937,0.379,1.716,0.934,2.339,1.663s1.086,1.629,1.391,2.703
			C181.898,11.759,182.051,12.988,182.051,14.375z M179.64,14.534c0-0.972-0.086-1.875-0.259-2.71
			c-0.173-0.834-0.458-1.558-0.86-2.172c-0.4-0.614-0.938-1.093-1.607-1.438c-0.67-0.344-1.5-0.516-2.488-0.516
			c-0.988,0-1.818,0.185-2.488,0.556c-0.67,0.371-1.216,0.866-1.634,1.484c-0.419,0.619-0.719,1.34-0.9,2.166
			c-0.181,0.827-0.272,1.694-0.272,2.604c0,1.007,0.084,1.934,0.252,2.782c0.167,0.848,0.449,1.579,0.846,2.193
			c0.397,0.613,0.929,1.09,1.594,1.43c0.667,0.34,1.501,0.511,2.507,0.511c0.998,0,1.836-0.186,2.515-0.556
			c0.68-0.372,1.227-0.873,1.64-1.505c0.416-0.631,0.71-1.362,0.888-2.192C179.551,16.34,179.64,15.462,179.64,14.534z"/>
		<path fill="#4E4D4D" d="M203.29,22.815c0,0.071-0.018,0.131-0.052,0.179c-0.036,0.048-0.095,0.091-0.179,0.126
			c-0.084,0.036-0.197,0.062-0.338,0.079c-0.142,0.018-0.323,0.027-0.543,0.027c-0.203,0-0.378-0.009-0.523-0.027
			c-0.146-0.018-0.261-0.043-0.344-0.079c-0.084-0.036-0.141-0.078-0.172-0.126c-0.031-0.048-0.046-0.107-0.046-0.179V12.361h-5.367
			v10.454c0,0.071-0.018,0.131-0.052,0.179c-0.036,0.048-0.095,0.091-0.179,0.126c-0.084,0.036-0.197,0.062-0.338,0.079
			c-0.142,0.018-0.318,0.027-0.53,0.027c-0.212,0-0.389-0.009-0.53-0.027c-0.142-0.018-0.255-0.043-0.338-0.079
			s-0.144-0.078-0.179-0.126c-0.034-0.048-0.052-0.107-0.052-0.179V12.361h-5.353v10.454c0,0.071-0.018,0.131-0.053,0.179
			c-0.035,0.048-0.094,0.091-0.179,0.126c-0.084,0.036-0.196,0.062-0.337,0.079c-0.142,0.018-0.319,0.027-0.531,0.027
			c-0.211,0-0.389-0.009-0.53-0.027c-0.141-0.018-0.254-0.043-0.338-0.079c-0.084-0.036-0.144-0.078-0.179-0.126
			c-0.035-0.048-0.053-0.107-0.053-0.179V12.361h-1.682c-0.142,0-0.248-0.07-0.318-0.212c-0.071-0.141-0.107-0.371-0.107-0.689
			c0-0.168,0.01-0.309,0.027-0.424c0.018-0.115,0.044-0.21,0.08-0.285c0.035-0.075,0.08-0.127,0.132-0.159
			c0.054-0.031,0.115-0.046,0.187-0.046h1.682V9.42c0-0.822,0.08-1.526,0.239-2.114c0.159-0.588,0.397-1.071,0.716-1.451
			c0.318-0.379,0.713-0.66,1.186-0.841c0.473-0.181,1.022-0.272,1.649-0.272c0.389,0,0.729,0.034,1.02,0.1
			c0.292,0.066,0.506,0.128,0.643,0.186c0.137,0.057,0.232,0.113,0.285,0.166c0.053,0.053,0.097,0.121,0.133,0.205
			s0.06,0.186,0.073,0.305c0.013,0.119,0.02,0.263,0.02,0.43c0,0.283-0.023,0.489-0.067,0.617c-0.043,0.128-0.123,0.192-0.238,0.192
			c-0.07,0-0.152-0.02-0.245-0.06c-0.093-0.04-0.209-0.084-0.351-0.132c-0.141-0.049-0.303-0.093-0.483-0.133
			c-0.181-0.04-0.383-0.06-0.604-0.06c-0.653,0-1.112,0.225-1.377,0.676c-0.265,0.45-0.398,1.17-0.398,2.16v1.153h5.353V9.261
			c0-0.822,0.082-1.526,0.245-2.113s0.4-1.072,0.708-1.451c0.31-0.38,0.696-0.66,1.159-0.841c0.464-0.181,0.997-0.271,1.597-0.271
			c0.194,0,0.391,0.009,0.589,0.026c0.199,0.018,0.376,0.044,0.53,0.079c0.155,0.036,0.292,0.073,0.411,0.113
			c0.119,0.04,0.201,0.082,0.245,0.125c0.044,0.044,0.08,0.09,0.106,0.139c0.027,0.048,0.051,0.109,0.073,0.179
			s0.038,0.159,0.046,0.265c0.009,0.106,0.014,0.234,0.014,0.384c0,0.283-0.022,0.486-0.066,0.61
			c-0.045,0.124-0.124,0.186-0.239,0.186c-0.062,0-0.133-0.016-0.212-0.047c-0.079-0.031-0.174-0.063-0.285-0.099
			c-0.11-0.036-0.249-0.069-0.417-0.1c-0.167-0.031-0.371-0.046-0.609-0.046c-0.61,0-1.044,0.225-1.305,0.675
			c-0.26,0.451-0.392,1.17-0.392,2.16v1.312h6.877c0.229,0,0.402,0.06,0.517,0.179c0.114,0.119,0.171,0.285,0.171,0.497V22.815z
			 M203.528,6.876c0,0.248-0.02,0.455-0.06,0.623s-0.11,0.303-0.211,0.404c-0.102,0.103-0.239,0.175-0.411,0.219
			c-0.172,0.044-0.391,0.066-0.655,0.066c-0.256,0-0.471-0.022-0.643-0.066c-0.173-0.043-0.31-0.116-0.411-0.219
			c-0.102-0.101-0.175-0.236-0.219-0.404c-0.043-0.168-0.065-0.375-0.065-0.623c0-0.248,0.022-0.453,0.065-0.616
			c0.044-0.164,0.118-0.3,0.219-0.411c0.102-0.11,0.238-0.185,0.411-0.226c0.171-0.04,0.386-0.06,0.643-0.06
			c0.265,0,0.483,0.02,0.655,0.06c0.172,0.041,0.31,0.116,0.411,0.226c0.102,0.11,0.171,0.247,0.211,0.411
			S203.528,6.628,203.528,6.876z"/>
		<path fill="#4E4D4D" d="M215.89,21c0,0.15-0.004,0.28-0.013,0.391c-0.009,0.111-0.025,0.203-0.047,0.278
			c-0.022,0.075-0.048,0.141-0.08,0.198c-0.03,0.058-0.101,0.142-0.211,0.252c-0.111,0.111-0.298,0.248-0.563,0.411
			c-0.266,0.164-0.563,0.309-0.895,0.437c-0.331,0.128-0.691,0.232-1.08,0.312c-0.388,0.079-0.79,0.119-1.206,0.119
			c-0.856,0-1.616-0.141-2.278-0.424c-0.662-0.283-1.217-0.695-1.663-1.238c-0.446-0.543-0.786-1.21-1.021-2
			c-0.235-0.791-0.352-1.703-0.352-2.736c0-1.175,0.144-2.184,0.431-3.027c0.287-0.843,0.681-1.535,1.18-2.074
			c0.5-0.539,1.086-0.938,1.762-1.199c0.675-0.261,1.407-0.391,2.193-0.391c0.379,0,0.748,0.036,1.106,0.106
			c0.358,0.071,0.687,0.164,0.987,0.278c0.3,0.115,0.567,0.248,0.802,0.397c0.234,0.151,0.404,0.279,0.51,0.385
			c0.106,0.106,0.179,0.19,0.219,0.251c0.04,0.063,0.073,0.135,0.099,0.218c0.027,0.085,0.045,0.179,0.053,0.285
			c0.009,0.106,0.014,0.238,0.014,0.398c0,0.344-0.04,0.584-0.119,0.722c-0.08,0.137-0.177,0.206-0.292,0.206
			c-0.132,0-0.285-0.073-0.457-0.219c-0.172-0.146-0.391-0.307-0.655-0.483c-0.266-0.177-0.585-0.339-0.961-0.484
			c-0.375-0.146-0.819-0.218-1.332-0.218c-1.051,0-1.856,0.404-2.417,1.212c-0.561,0.808-0.841,1.98-0.841,3.518
			c0,0.769,0.073,1.442,0.219,2.021c0.146,0.579,0.36,1.062,0.643,1.451c0.282,0.389,0.629,0.678,1.04,0.868
			c0.411,0.19,0.881,0.285,1.411,0.285c0.503,0,0.945-0.079,1.325-0.239c0.379-0.159,0.708-0.333,0.987-0.523
			c0.278-0.189,0.513-0.362,0.702-0.517c0.19-0.154,0.338-0.231,0.444-0.231c0.063,0,0.115,0.018,0.159,0.053
			c0.045,0.035,0.082,0.094,0.113,0.178c0.03,0.084,0.053,0.19,0.066,0.318C215.884,20.671,215.89,20.823,215.89,21z"/>
		<path fill="#4E4D4D" d="M228.967,16.336c0,0.344-0.085,0.589-0.259,0.734c-0.174,0.146-0.372,0.219-0.593,0.219h-7.852
			c0,0.662,0.065,1.259,0.2,1.788c0.133,0.53,0.354,0.985,0.666,1.365c0.311,0.38,0.715,0.672,1.212,0.875
			c0.496,0.204,1.105,0.305,1.824,0.305c0.568,0,1.073-0.046,1.518-0.139c0.443-0.093,0.827-0.197,1.152-0.311
			c0.324-0.116,0.589-0.219,0.798-0.311c0.209-0.093,0.367-0.14,0.473-0.14c0.063,0,0.118,0.016,0.167,0.046
			c0.049,0.031,0.086,0.077,0.114,0.139c0.026,0.063,0.046,0.148,0.06,0.259c0.013,0.11,0.02,0.246,0.02,0.404
			c0,0.115-0.004,0.215-0.014,0.298c-0.008,0.084-0.02,0.16-0.033,0.226c-0.014,0.065-0.036,0.125-0.067,0.179
			c-0.03,0.053-0.07,0.104-0.119,0.152c-0.048,0.048-0.191,0.128-0.43,0.238c-0.239,0.11-0.547,0.219-0.927,0.325
			s-0.819,0.201-1.318,0.285c-0.5,0.084-1.031,0.126-1.597,0.126c-0.981,0-1.839-0.137-2.577-0.411
			c-0.738-0.274-1.358-0.68-1.862-1.219c-0.503-0.538-0.883-1.214-1.14-2.027c-0.255-0.813-0.384-1.758-0.384-2.835
			c0-1.025,0.133-1.946,0.398-2.763c0.265-0.817,0.647-1.51,1.146-2.08c0.499-0.57,1.102-1.007,1.809-1.312
			c0.706-0.304,1.498-0.456,2.371-0.456c0.937,0,1.734,0.149,2.392,0.45c0.658,0.3,1.199,0.705,1.624,1.212
			c0.424,0.508,0.734,1.104,0.934,1.789c0.199,0.684,0.298,1.416,0.298,2.193V16.336z M226.768,15.687
			c0.027-1.148-0.229-2.05-0.767-2.703c-0.538-0.653-1.335-0.98-2.392-0.98c-0.542,0-1.019,0.101-1.427,0.304
			c-0.41,0.203-0.752,0.473-1.026,0.809c-0.276,0.335-0.49,0.726-0.641,1.173c-0.152,0.445-0.235,0.912-0.253,1.397H226.768z"/>
		<path fill="#4E4D4D" d="M249.517,16.72c0,0.972-0.127,1.866-0.384,2.683s-0.638,1.521-1.146,2.113
			c-0.508,0.592-1.144,1.053-1.908,1.385c-0.764,0.331-1.65,0.497-2.657,0.497c-0.98,0-1.834-0.146-2.564-0.438
			c-0.728-0.291-1.335-0.715-1.821-1.271c-0.486-0.556-0.849-1.232-1.086-2.027c-0.239-0.795-0.358-1.696-0.358-2.703
			c0-0.972,0.125-1.867,0.377-2.683c0.251-0.817,0.631-1.522,1.139-2.114c0.509-0.592,1.142-1.051,1.902-1.378
			s1.647-0.49,2.664-0.49c0.98,0,1.834,0.145,2.563,0.437c0.729,0.291,1.335,0.716,1.821,1.272c0.486,0.557,0.851,1.232,1.094,2.027
			C249.396,14.826,249.517,15.723,249.517,16.72z M247.251,16.866c0-0.645-0.061-1.254-0.181-1.829
			c-0.121-0.574-0.318-1.077-0.595-1.51s-0.651-0.775-1.124-1.027c-0.471-0.252-1.059-0.378-1.764-0.378
			c-0.65,0-1.21,0.115-1.678,0.344c-0.467,0.23-0.853,0.555-1.157,0.974c-0.302,0.419-0.527,0.917-0.674,1.491
			c-0.147,0.574-0.221,1.202-0.221,1.881c0,0.654,0.06,1.268,0.181,1.842c0.119,0.574,0.32,1.076,0.601,1.504
			c0.282,0.429,0.657,0.768,1.129,1.021c0.472,0.252,1.062,0.377,1.766,0.377c0.642,0,1.199-0.114,1.67-0.344
			c0.473-0.23,0.86-0.552,1.164-0.967c0.302-0.415,0.525-0.91,0.667-1.484C247.18,18.186,247.251,17.555,247.251,16.866z"/>
		<path fill="#4E4D4D" d="M259.269,5.988c0,0.167-0.01,0.303-0.027,0.404c-0.018,0.101-0.037,0.183-0.059,0.245
			c-0.023,0.062-0.052,0.104-0.087,0.126c-0.035,0.022-0.08,0.033-0.132,0.033c-0.062,0-0.139-0.02-0.232-0.059
			c-0.092-0.04-0.205-0.083-0.338-0.132c-0.131-0.048-0.289-0.093-0.469-0.133c-0.182-0.04-0.392-0.06-0.629-0.06
			c-0.328,0-0.606,0.053-0.835,0.16c-0.23,0.105-0.415,0.271-0.556,0.496c-0.142,0.226-0.244,0.517-0.305,0.875
			c-0.062,0.357-0.093,0.792-0.093,1.305v1.299h2.663c0.071,0,0.131,0.015,0.179,0.046c0.048,0.032,0.094,0.084,0.133,0.159
			c0.04,0.075,0.07,0.17,0.092,0.285c0.022,0.115,0.033,0.256,0.033,0.424c0,0.318-0.04,0.548-0.119,0.689
			c-0.08,0.142-0.185,0.212-0.318,0.212h-2.663v10.454c0,0.071-0.018,0.131-0.052,0.179c-0.036,0.048-0.096,0.091-0.179,0.126
			s-0.197,0.062-0.338,0.079c-0.141,0.018-0.319,0.027-0.53,0.027c-0.212,0-0.39-0.009-0.531-0.027
			c-0.141-0.018-0.253-0.043-0.338-0.079c-0.083-0.036-0.144-0.078-0.179-0.126c-0.034-0.048-0.052-0.107-0.052-0.179V12.361h-1.683
			c-0.141,0-0.247-0.07-0.318-0.212c-0.07-0.141-0.105-0.371-0.105-0.689c0-0.168,0.008-0.309,0.026-0.424
			c0.018-0.115,0.043-0.21,0.079-0.285c0.036-0.075,0.08-0.127,0.133-0.159c0.052-0.031,0.114-0.046,0.185-0.046h1.683V9.313
			c0-0.83,0.078-1.543,0.231-2.139c0.155-0.596,0.391-1.084,0.71-1.464c0.316-0.38,0.716-0.661,1.197-0.841
			c0.482-0.182,1.05-0.272,1.704-0.272c0.309,0,0.61,0.029,0.9,0.086c0.293,0.057,0.517,0.119,0.677,0.186
			c0.159,0.066,0.265,0.125,0.318,0.178c0.052,0.054,0.097,0.122,0.131,0.206c0.036,0.084,0.06,0.186,0.074,0.305
			C259.263,5.677,259.269,5.82,259.269,5.988z"/>
		<path fill="#4E4D4D" d="M269.684,22.802c0,0.071-0.018,0.132-0.053,0.186c-0.036,0.053-0.099,0.095-0.187,0.126
			c-0.087,0.031-0.205,0.058-0.352,0.079c-0.145,0.022-0.328,0.034-0.548,0.034c-0.214,0-0.394-0.012-0.543-0.034
			c-0.15-0.021-0.27-0.048-0.358-0.079c-0.087-0.031-0.149-0.073-0.185-0.126c-0.036-0.053-0.054-0.115-0.054-0.186V6.346
			c0-0.071,0.02-0.133,0.059-0.186c0.04-0.053,0.106-0.095,0.2-0.126c0.093-0.031,0.212-0.058,0.357-0.08
			c0.146-0.022,0.32-0.033,0.524-0.033c0.22,0,0.403,0.011,0.548,0.033c0.146,0.022,0.264,0.049,0.352,0.08
			c0.088,0.031,0.151,0.073,0.187,0.126c0.035,0.053,0.053,0.115,0.053,0.186V22.802z"/>
		<path fill="#4E4D4D" d="M284.257,22.815c0,0.071-0.018,0.131-0.054,0.179c-0.034,0.048-0.091,0.091-0.171,0.126
			s-0.19,0.062-0.333,0.079c-0.141,0.018-0.316,0.027-0.529,0.027c-0.221,0-0.401-0.009-0.543-0.027
			c-0.141-0.018-0.251-0.043-0.331-0.079c-0.079-0.036-0.137-0.078-0.172-0.126c-0.036-0.048-0.053-0.107-0.053-0.179v-6.982
			c0-0.68-0.052-1.228-0.159-1.643c-0.105-0.415-0.26-0.772-0.464-1.073c-0.203-0.3-0.465-0.53-0.788-0.689
			c-0.322-0.159-0.695-0.238-1.12-0.238c-0.547,0-1.096,0.194-1.644,0.583s-1.122,0.958-1.723,1.709v8.334
			c0,0.071-0.018,0.131-0.052,0.179c-0.036,0.048-0.093,0.091-0.172,0.126c-0.081,0.036-0.19,0.062-0.331,0.079
			c-0.141,0.018-0.323,0.027-0.543,0.027c-0.212,0-0.39-0.009-0.531-0.027c-0.141-0.018-0.254-0.043-0.338-0.079
			s-0.141-0.078-0.171-0.126c-0.032-0.048-0.048-0.107-0.048-0.179V10.891c0-0.07,0.014-0.131,0.04-0.179
			c0.027-0.048,0.079-0.092,0.16-0.132c0.079-0.04,0.18-0.066,0.305-0.08c0.124-0.013,0.288-0.02,0.49-0.02
			c0.194,0,0.355,0.007,0.483,0.02c0.128,0.014,0.227,0.04,0.298,0.08c0.07,0.04,0.122,0.084,0.152,0.132
			c0.031,0.048,0.048,0.109,0.048,0.179v1.576c0.67-0.75,1.339-1.3,2.007-1.649c0.666-0.349,1.34-0.522,2.021-0.522
			c0.793,0,1.463,0.134,2.007,0.403c0.543,0.27,0.982,0.629,1.317,1.081c0.335,0.45,0.576,0.978,0.721,1.583
			c0.146,0.604,0.219,1.331,0.219,2.18V22.815z"/>
		<path fill="#4E4D4D" d="M294.195,21.94c0,0.256-0.018,0.459-0.053,0.61c-0.036,0.15-0.089,0.261-0.159,0.331
			c-0.071,0.07-0.176,0.137-0.317,0.198c-0.142,0.063-0.302,0.113-0.484,0.153c-0.18,0.04-0.374,0.072-0.576,0.099
			c-0.203,0.026-0.407,0.04-0.609,0.04c-0.619,0-1.149-0.082-1.591-0.244c-0.442-0.164-0.803-0.411-1.086-0.742
			c-0.282-0.331-0.487-0.751-0.616-1.259c-0.129-0.508-0.191-1.106-0.191-1.796v-6.969h-1.669c-0.133,0-0.24-0.07-0.319-0.212
			c-0.08-0.141-0.119-0.371-0.119-0.689c0-0.168,0.011-0.309,0.034-0.424c0.022-0.115,0.049-0.21,0.085-0.285
			c0.036-0.075,0.082-0.127,0.14-0.159c0.057-0.031,0.122-0.046,0.193-0.046h1.656V7.711c0-0.063,0.015-0.12,0.045-0.172
			c0.031-0.053,0.089-0.1,0.174-0.139c0.083-0.04,0.196-0.069,0.338-0.086c0.141-0.018,0.317-0.027,0.529-0.027
			c0.221,0,0.401,0.009,0.543,0.027c0.141,0.017,0.252,0.046,0.331,0.086c0.08,0.04,0.137,0.086,0.172,0.139
			c0.036,0.052,0.053,0.11,0.053,0.172v2.835h3.06c0.071,0,0.133,0.015,0.186,0.046c0.052,0.032,0.1,0.084,0.14,0.159
			c0.04,0.075,0.068,0.17,0.086,0.285c0.018,0.115,0.026,0.256,0.026,0.424c0,0.318-0.04,0.548-0.119,0.689
			c-0.081,0.142-0.186,0.212-0.319,0.212h-3.06v6.651c0,0.821,0.121,1.441,0.364,1.861c0.242,0.419,0.677,0.629,1.305,0.629
			c0.203,0,0.383-0.02,0.542-0.06c0.16-0.04,0.301-0.082,0.424-0.126c0.125-0.044,0.231-0.085,0.319-0.125
			c0.089-0.04,0.168-0.06,0.238-0.06c0.044,0,0.086,0.011,0.126,0.033c0.04,0.022,0.071,0.064,0.093,0.126s0.042,0.146,0.061,0.251
			C294.187,21.649,294.195,21.782,294.195,21.94z"/>
		<path fill="#4E4D4D" d="M306.967,16.336c0,0.344-0.087,0.589-0.26,0.734c-0.174,0.146-0.372,0.219-0.593,0.219h-7.852
			c0,0.662,0.065,1.259,0.198,1.788c0.131,0.53,0.356,0.985,0.667,1.365c0.311,0.38,0.717,0.672,1.211,0.875
			c0.498,0.204,1.107,0.305,1.824,0.305c0.57,0,1.075-0.046,1.519-0.139c0.445-0.093,0.827-0.197,1.152-0.311
			c0.324-0.116,0.588-0.219,0.797-0.311c0.211-0.093,0.367-0.14,0.474-0.14c0.064,0,0.118,0.016,0.166,0.046
			s0.087,0.077,0.115,0.139c0.026,0.063,0.047,0.148,0.061,0.259c0.012,0.11,0.019,0.246,0.019,0.404
			c0,0.115-0.005,0.215-0.014,0.298c-0.008,0.084-0.019,0.16-0.033,0.226c-0.014,0.065-0.036,0.125-0.067,0.179
			c-0.03,0.053-0.069,0.104-0.119,0.152c-0.048,0.048-0.192,0.128-0.43,0.238c-0.238,0.11-0.549,0.219-0.929,0.325
			c-0.377,0.106-0.818,0.201-1.317,0.285c-0.498,0.084-1.032,0.126-1.597,0.126c-0.979,0-1.839-0.137-2.576-0.411
			c-0.738-0.274-1.359-0.68-1.862-1.219c-0.502-0.538-0.882-1.214-1.138-2.027c-0.257-0.813-0.385-1.758-0.385-2.835
			c0-1.025,0.133-1.946,0.397-2.763c0.266-0.817,0.647-1.51,1.146-2.08c0.5-0.57,1.102-1.007,1.809-1.312
			c0.706-0.304,1.497-0.456,2.371-0.456c0.936,0,1.733,0.149,2.392,0.45c0.658,0.3,1.199,0.705,1.623,1.212
			c0.424,0.508,0.736,1.104,0.935,1.789c0.199,0.684,0.298,1.416,0.298,2.193V16.336z M304.767,15.687
			c0.026-1.148-0.229-2.05-0.766-2.703c-0.536-0.653-1.335-0.98-2.39-0.98c-0.543,0-1.021,0.101-1.427,0.304
			c-0.412,0.203-0.754,0.473-1.03,0.809c-0.272,0.335-0.487,0.726-0.639,1.173c-0.15,0.445-0.234,0.912-0.251,1.397H304.767z"/>
		<path fill="#4E4D4D" d="M317.262,11.672c0,0.194-0.004,0.358-0.014,0.49c-0.008,0.132-0.026,0.236-0.054,0.311
			c-0.026,0.075-0.059,0.133-0.098,0.172s-0.095,0.06-0.166,0.06c-0.071,0-0.158-0.02-0.259-0.06
			c-0.103-0.04-0.216-0.079-0.345-0.119c-0.127-0.04-0.271-0.077-0.43-0.113c-0.16-0.035-0.333-0.053-0.517-0.053
			c-0.222,0-0.438,0.044-0.648,0.132c-0.214,0.089-0.437,0.234-0.67,0.438c-0.234,0.204-0.479,0.472-0.735,0.808
			s-0.539,0.746-0.849,1.232v7.843c0,0.071-0.016,0.131-0.052,0.179c-0.036,0.048-0.094,0.091-0.174,0.126s-0.189,0.062-0.33,0.079
			c-0.143,0.018-0.323,0.027-0.543,0.027c-0.213,0-0.39-0.009-0.531-0.027c-0.141-0.018-0.253-0.043-0.338-0.079
			c-0.083-0.036-0.141-0.078-0.172-0.126c-0.032-0.048-0.046-0.107-0.046-0.179V10.891c0-0.07,0.014-0.131,0.04-0.179
			c0.027-0.048,0.079-0.092,0.159-0.132c0.079-0.04,0.182-0.066,0.307-0.08c0.123-0.013,0.286-0.02,0.49-0.02
			c0.194,0,0.355,0.007,0.483,0.02c0.127,0.014,0.227,0.04,0.298,0.08c0.07,0.04,0.122,0.084,0.153,0.132
			c0.03,0.048,0.045,0.109,0.045,0.179v1.736c0.327-0.477,0.633-0.866,0.921-1.166c0.287-0.3,0.56-0.537,0.814-0.709
			c0.257-0.172,0.512-0.292,0.762-0.357c0.253-0.066,0.506-0.099,0.762-0.099c0.115,0,0.245,0.006,0.391,0.02
			c0.145,0.013,0.298,0.037,0.457,0.073s0.302,0.075,0.431,0.119c0.127,0.044,0.219,0.089,0.272,0.132
			c0.052,0.044,0.087,0.086,0.105,0.126c0.018,0.04,0.033,0.091,0.047,0.153c0.012,0.062,0.021,0.152,0.026,0.271
			C317.259,11.308,317.262,11.469,317.262,11.672z"/>
		<path fill="#4E4D4D" d="M330.021,22.815c0,0.071-0.018,0.131-0.053,0.179c-0.036,0.048-0.093,0.091-0.172,0.126
			c-0.08,0.036-0.189,0.062-0.331,0.079c-0.141,0.018-0.317,0.027-0.53,0.027c-0.222,0-0.402-0.009-0.543-0.027
			c-0.143-0.018-0.252-0.043-0.331-0.079c-0.08-0.036-0.137-0.078-0.172-0.126c-0.036-0.048-0.054-0.107-0.054-0.179v-6.982
			c0-0.68-0.053-1.228-0.159-1.643c-0.106-0.415-0.26-0.772-0.464-1.073c-0.204-0.3-0.466-0.53-0.788-0.689
			c-0.323-0.159-0.695-0.238-1.119-0.238c-0.549,0-1.096,0.194-1.643,0.583c-0.549,0.389-1.122,0.958-1.723,1.709v8.334
			c0,0.071-0.018,0.131-0.054,0.179c-0.035,0.048-0.091,0.091-0.171,0.126c-0.079,0.036-0.19,0.062-0.333,0.079
			c-0.141,0.018-0.321,0.027-0.543,0.027c-0.212,0-0.387-0.009-0.53-0.027c-0.141-0.018-0.254-0.043-0.338-0.079
			s-0.141-0.078-0.172-0.126c-0.03-0.048-0.046-0.107-0.046-0.179V10.891c0-0.07,0.014-0.131,0.04-0.179
			c0.027-0.048,0.081-0.092,0.16-0.132c0.079-0.04,0.181-0.066,0.304-0.08c0.125-0.013,0.287-0.02,0.49-0.02
			c0.196,0,0.356,0.007,0.484,0.02c0.129,0.014,0.227,0.04,0.298,0.08c0.071,0.04,0.121,0.084,0.152,0.132
			c0.032,0.048,0.046,0.109,0.046,0.179v1.576c0.672-0.75,1.341-1.3,2.007-1.649c0.668-0.349,1.341-0.522,2.021-0.522
			c0.795,0,1.464,0.134,2.007,0.403c0.543,0.27,0.982,0.629,1.319,1.081c0.334,0.45,0.575,0.978,0.721,1.583
			c0.146,0.604,0.219,1.331,0.219,2.18V22.815z"/>
		<path fill="#4E4D4D" d="M342.992,22.829c0,0.105-0.036,0.185-0.105,0.238c-0.071,0.053-0.168,0.093-0.293,0.12
			c-0.123,0.026-0.304,0.04-0.543,0.04c-0.229,0-0.412-0.014-0.549-0.04c-0.137-0.027-0.237-0.066-0.298-0.12
			c-0.062-0.054-0.093-0.133-0.093-0.238v-1.193c-0.521,0.557-1.103,0.99-1.743,1.298c-0.641,0.309-1.318,0.464-2.033,0.464
			c-0.627,0-1.194-0.082-1.702-0.245s-0.941-0.4-1.298-0.708c-0.357-0.31-0.636-0.689-0.835-1.14
			c-0.198-0.45-0.298-0.962-0.298-1.536c0-0.672,0.137-1.255,0.412-1.749c0.272-0.495,0.667-0.906,1.178-1.232
			c0.513-0.327,1.14-0.572,1.881-0.735c0.741-0.164,1.577-0.246,2.504-0.246h1.643v-0.927c0-0.459-0.049-0.866-0.146-1.22
			c-0.096-0.353-0.253-0.646-0.469-0.881c-0.218-0.233-0.498-0.411-0.841-0.53c-0.345-0.119-0.769-0.179-1.272-0.179
			c-0.538,0-1.022,0.064-1.451,0.192c-0.428,0.128-0.804,0.269-1.126,0.423c-0.323,0.155-0.592,0.296-0.809,0.424
			s-0.377,0.192-0.483,0.192c-0.071,0-0.133-0.018-0.186-0.053c-0.054-0.035-0.099-0.088-0.138-0.159s-0.07-0.161-0.088-0.271
			c-0.016-0.111-0.026-0.232-0.026-0.365c0-0.221,0.015-0.395,0.046-0.523c0.032-0.128,0.107-0.249,0.226-0.364
			c0.119-0.115,0.324-0.25,0.616-0.404c0.292-0.154,0.628-0.295,1.007-0.424c0.379-0.128,0.795-0.234,1.245-0.318
			c0.45-0.083,0.906-0.125,1.366-0.125c0.855,0,1.586,0.096,2.187,0.291c0.599,0.194,1.086,0.479,1.456,0.854
			c0.372,0.375,0.641,0.842,0.809,1.398c0.168,0.556,0.252,1.206,0.252,1.947V22.829z M340.819,17.383h-1.868
			c-0.601,0-1.122,0.051-1.564,0.152c-0.442,0.102-0.809,0.252-1.1,0.451c-0.292,0.198-0.505,0.437-0.642,0.715
			c-0.137,0.278-0.205,0.598-0.205,0.96c0,0.619,0.195,1.11,0.588,1.478c0.394,0.366,0.944,0.549,1.65,0.549
			c0.575,0,1.105-0.146,1.597-0.437c0.49-0.292,1.004-0.738,1.543-1.339V17.383z"/>
		<path fill="#4E4D4D" d="M357.129,10.546c0.266,0,0.447,0.06,0.544,0.179c0.096,0.119,0.145,0.293,0.145,0.523v11.566
			c0,0.071-0.018,0.131-0.053,0.179c-0.036,0.048-0.096,0.091-0.179,0.126s-0.197,0.062-0.338,0.079
			c-0.141,0.018-0.313,0.027-0.516,0.027c-0.22,0-0.402-0.009-0.543-0.027c-0.141-0.018-0.254-0.043-0.338-0.079
			s-0.144-0.078-0.179-0.126c-0.036-0.048-0.054-0.107-0.054-0.179V12.361h-6.161v6.651c0,0.821,0.122,1.441,0.365,1.861
			c0.242,0.419,0.677,0.629,1.304,0.629c0.204,0,0.386-0.02,0.543-0.06c0.16-0.04,0.301-0.082,0.426-0.126
			c0.123-0.044,0.229-0.085,0.317-0.125c0.089-0.04,0.168-0.06,0.238-0.06c0.043,0,0.087,0.011,0.127,0.033s0.07,0.064,0.092,0.126
			s0.042,0.146,0.06,0.251c0.018,0.106,0.026,0.239,0.026,0.397c0,0.256-0.018,0.457-0.053,0.603
			c-0.036,0.146-0.089,0.256-0.159,0.332c-0.071,0.075-0.176,0.143-0.317,0.205c-0.143,0.063-0.302,0.113-0.484,0.153
			c-0.181,0.04-0.374,0.072-0.576,0.099c-0.204,0.026-0.406,0.04-0.609,0.04c-0.618,0-1.148-0.082-1.59-0.244
			c-0.442-0.164-0.805-0.411-1.086-0.742c-0.283-0.331-0.488-0.751-0.617-1.259c-0.128-0.508-0.191-1.106-0.191-1.796v-6.969h-1.669
			c-0.132,0-0.239-0.07-0.318-0.212c-0.08-0.141-0.119-0.371-0.119-0.689c0-0.168,0.011-0.309,0.033-0.424
			c0.023-0.115,0.051-0.21,0.086-0.285c0.035-0.075,0.082-0.127,0.139-0.159c0.058-0.031,0.122-0.046,0.193-0.046h1.655V7.711
			c0-0.063,0.015-0.12,0.046-0.172c0.03-0.053,0.088-0.1,0.172-0.139c0.083-0.04,0.196-0.069,0.338-0.086
			c0.141-0.018,0.317-0.027,0.529-0.027c0.22,0,0.401,0.009,0.543,0.027c0.141,0.017,0.251,0.046,0.331,0.086
			c0.079,0.04,0.137,0.086,0.172,0.139c0.034,0.052,0.052,0.11,0.052,0.172v2.835H357.129z M358.07,6.863
			c0,0.512-0.099,0.861-0.292,1.046c-0.194,0.186-0.553,0.278-1.074,0.278c-0.512,0-0.863-0.09-1.052-0.271
			c-0.19-0.181-0.285-0.523-0.285-1.027c0-0.512,0.096-0.861,0.29-1.047c0.195-0.185,0.553-0.278,1.074-0.278
			c0.512,0,0.864,0.091,1.054,0.271C357.976,6.017,358.07,6.36,358.07,6.863z"/>
		<path fill="#4E4D4D" d="M372.962,16.72c0,0.972-0.129,1.866-0.385,2.683s-0.639,1.521-1.146,2.113
			c-0.507,0.592-1.144,1.053-1.907,1.385c-0.764,0.331-1.649,0.497-2.656,0.497c-0.981,0-1.836-0.146-2.564-0.438
			c-0.728-0.291-1.337-0.715-1.823-1.271s-0.847-1.232-1.086-2.027c-0.238-0.795-0.357-1.696-0.357-2.703
			c0-0.972,0.126-1.867,0.377-2.683c0.252-0.817,0.632-1.522,1.14-2.114c0.508-0.592,1.142-1.051,1.902-1.378
			c0.758-0.327,1.646-0.49,2.661-0.49c0.981,0,1.836,0.145,2.564,0.437c0.729,0.291,1.337,0.716,1.823,1.272
			c0.485,0.557,0.85,1.232,1.093,2.027C372.84,14.826,372.962,15.723,372.962,16.72z M370.698,16.866
			c0-0.645-0.063-1.254-0.182-1.829c-0.119-0.574-0.317-1.077-0.594-1.51c-0.276-0.433-0.652-0.775-1.125-1.027
			c-0.472-0.252-1.061-0.378-1.764-0.378c-0.651,0-1.209,0.115-1.679,0.344c-0.467,0.23-0.853,0.555-1.155,0.974
			c-0.304,0.419-0.531,0.917-0.676,1.491c-0.145,0.574-0.22,1.202-0.22,1.881c0,0.654,0.059,1.268,0.181,1.842
			c0.119,0.574,0.32,1.076,0.601,1.504c0.283,0.429,0.658,0.768,1.13,1.021c0.474,0.252,1.061,0.377,1.765,0.377
			c0.642,0,1.199-0.114,1.672-0.344c0.472-0.23,0.858-0.552,1.162-0.967c0.305-0.415,0.525-0.91,0.669-1.484
			C370.627,18.186,370.698,17.555,370.698,16.866z"/>
		<path fill="#4E4D4D" d="M386.451,22.815c0,0.071-0.018,0.131-0.053,0.179c-0.036,0.048-0.093,0.091-0.172,0.126
			c-0.08,0.036-0.19,0.062-0.332,0.079c-0.141,0.018-0.317,0.027-0.531,0.027c-0.22,0-0.401-0.009-0.543-0.027
			c-0.141-0.018-0.25-0.043-0.33-0.079c-0.079-0.036-0.137-0.078-0.172-0.126c-0.036-0.048-0.053-0.107-0.053-0.179v-6.982
			c0-0.68-0.053-1.228-0.159-1.643c-0.107-0.415-0.26-0.772-0.464-1.073c-0.204-0.3-0.467-0.53-0.79-0.689
			c-0.321-0.159-0.694-0.238-1.118-0.238c-0.549,0-1.096,0.194-1.644,0.583c-0.548,0.389-1.122,0.958-1.723,1.709v8.334
			c0,0.071-0.018,0.131-0.053,0.179c-0.036,0.048-0.092,0.091-0.171,0.126c-0.081,0.036-0.191,0.062-0.333,0.079
			c-0.141,0.018-0.322,0.027-0.543,0.027c-0.212,0-0.388-0.009-0.529-0.027c-0.141-0.018-0.254-0.043-0.338-0.079
			s-0.141-0.078-0.172-0.126c-0.03-0.048-0.047-0.107-0.047-0.179V10.891c0-0.07,0.014-0.131,0.04-0.179
			c0.026-0.048,0.079-0.092,0.16-0.132c0.079-0.04,0.18-0.066,0.304-0.08c0.123-0.013,0.287-0.02,0.49-0.02
			c0.194,0,0.355,0.007,0.483,0.02c0.13,0.014,0.229,0.04,0.298,0.08c0.071,0.04,0.122,0.084,0.153,0.132
			c0.03,0.048,0.046,0.109,0.046,0.179v1.576c0.672-0.75,1.341-1.3,2.007-1.649c0.667-0.349,1.341-0.522,2.021-0.522
			c0.795,0,1.464,0.134,2.007,0.403c0.543,0.27,0.982,0.629,1.318,1.081c0.335,0.45,0.576,0.978,0.723,1.583
			c0.146,0.604,0.219,1.331,0.219,2.18V22.815z"/>
		<path fill="#4E4D4D" d="M399.421,22.829c0,0.105-0.035,0.185-0.105,0.238c-0.07,0.053-0.168,0.093-0.292,0.12
			c-0.124,0.026-0.305,0.04-0.543,0.04c-0.229,0-0.414-0.014-0.549-0.04c-0.137-0.027-0.237-0.066-0.298-0.12
			c-0.062-0.054-0.093-0.133-0.093-0.238v-1.193c-0.521,0.557-1.103,0.99-1.743,1.298c-0.641,0.309-1.318,0.464-2.033,0.464
			c-0.627,0-1.195-0.082-1.702-0.245c-0.508-0.164-0.941-0.4-1.3-0.708c-0.356-0.31-0.635-0.689-0.833-1.14
			c-0.2-0.45-0.298-0.962-0.298-1.536c0-0.672,0.137-1.255,0.411-1.749c0.273-0.495,0.667-0.906,1.179-1.232
			c0.512-0.327,1.14-0.572,1.881-0.735c0.742-0.164,1.578-0.246,2.504-0.246h1.644v-0.927c0-0.459-0.049-0.866-0.146-1.22
			c-0.096-0.353-0.253-0.646-0.469-0.881c-0.218-0.233-0.498-0.411-0.842-0.53c-0.345-0.119-0.769-0.179-1.272-0.179
			c-0.539,0-1.022,0.064-1.452,0.192c-0.427,0.128-0.803,0.269-1.126,0.423c-0.322,0.155-0.591,0.296-0.807,0.424
			c-0.216,0.128-0.378,0.192-0.483,0.192c-0.071,0-0.134-0.018-0.187-0.053c-0.053-0.035-0.1-0.088-0.139-0.159
			c-0.04-0.071-0.068-0.161-0.086-0.271c-0.017-0.111-0.026-0.232-0.026-0.365c0-0.221,0.015-0.395,0.045-0.523
			c0.032-0.128,0.107-0.249,0.228-0.364c0.119-0.115,0.324-0.25,0.614-0.404c0.292-0.154,0.628-0.295,1.007-0.424
			c0.38-0.128,0.796-0.234,1.247-0.318c0.45-0.083,0.906-0.125,1.365-0.125c0.855,0,1.584,0.096,2.185,0.291
			c0.601,0.194,1.086,0.479,1.458,0.854c0.373,0.375,0.64,0.842,0.808,1.398c0.169,0.556,0.252,1.206,0.252,1.947V22.829z
			 M397.249,17.383h-1.868c-0.601,0-1.122,0.051-1.564,0.152c-0.442,0.102-0.809,0.252-1.1,0.451
			c-0.292,0.198-0.505,0.437-0.642,0.715c-0.138,0.278-0.206,0.598-0.206,0.96c0,0.619,0.196,1.11,0.588,1.478
			c0.394,0.366,0.943,0.549,1.65,0.549c0.575,0,1.105-0.146,1.597-0.437c0.49-0.292,1.004-0.738,1.543-1.339V17.383z"/>
		<path fill="#4E4D4D" d="M405.623,22.815c0,0.071-0.018,0.131-0.054,0.179c-0.034,0.048-0.093,0.091-0.172,0.126
			s-0.19,0.062-0.331,0.079c-0.142,0.018-0.323,0.027-0.543,0.027c-0.213,0-0.389-0.009-0.53-0.027
			c-0.141-0.018-0.254-0.043-0.338-0.079c-0.083-0.036-0.141-0.078-0.172-0.126c-0.031-0.048-0.047-0.107-0.047-0.179V5.114
			c0-0.071,0.016-0.133,0.047-0.186c0.031-0.052,0.089-0.097,0.172-0.132c0.084-0.036,0.197-0.062,0.338-0.08
			c0.142-0.018,0.317-0.027,0.53-0.027c0.22,0,0.401,0.009,0.543,0.027c0.141,0.018,0.252,0.044,0.331,0.08
			c0.079,0.035,0.138,0.08,0.172,0.132c0.036,0.053,0.054,0.114,0.054,0.186V22.815z"/>
		<path fill="#4E4D4D" d="M428.888,22.338c0.071,0.194,0.108,0.351,0.112,0.47c0.004,0.12-0.027,0.21-0.099,0.271
			c-0.071,0.063-0.188,0.102-0.352,0.12c-0.164,0.018-0.383,0.027-0.655,0.027c-0.275,0-0.494-0.007-0.657-0.02
			c-0.162-0.014-0.285-0.035-0.37-0.066c-0.085-0.031-0.146-0.073-0.187-0.127c-0.039-0.053-0.076-0.118-0.112-0.198l-1.471-4.173
			h-7.129l-1.403,4.12c-0.026,0.08-0.062,0.148-0.105,0.206c-0.044,0.058-0.108,0.106-0.192,0.146s-0.203,0.068-0.357,0.086
			c-0.154,0.018-0.355,0.027-0.603,0.027c-0.257,0-0.466-0.012-0.631-0.034c-0.162-0.021-0.277-0.063-0.343-0.125
			c-0.067-0.062-0.099-0.152-0.095-0.272c0.006-0.119,0.044-0.275,0.113-0.47l5.751-15.926c0.034-0.097,0.082-0.177,0.14-0.239
			c0.057-0.062,0.141-0.11,0.251-0.146c0.11-0.035,0.253-0.06,0.424-0.073c0.172-0.013,0.392-0.02,0.656-0.02
			c0.282,0,0.518,0.007,0.702,0.02c0.185,0.014,0.335,0.038,0.45,0.073c0.115,0.036,0.202,0.086,0.266,0.152
			c0.062,0.066,0.109,0.148,0.145,0.246L428.888,22.338z M421.508,8.281h-0.013l-2.955,8.545h5.963L421.508,8.281z"/>
		<path fill="#4E4D4D" d="M445.583,5.975c0,0.283-0.021,0.486-0.065,0.61c-0.046,0.123-0.125,0.185-0.24,0.185
			c-0.069,0-0.151-0.018-0.244-0.053c-0.094-0.035-0.208-0.077-0.344-0.125c-0.139-0.049-0.294-0.094-0.472-0.134
			c-0.177-0.039-0.379-0.059-0.609-0.059c-0.654,0-1.115,0.225-1.385,0.675c-0.27,0.451-0.403,1.17-0.403,2.16v1.312h2.662
			c0.071,0,0.133,0.015,0.187,0.046c0.052,0.032,0.1,0.084,0.14,0.159c0.04,0.075,0.068,0.17,0.086,0.285
			c0.018,0.115,0.026,0.256,0.026,0.424c0,0.318-0.038,0.548-0.112,0.689c-0.075,0.142-0.185,0.212-0.326,0.212h-2.662v10.454
			c0,0.071-0.018,0.131-0.054,0.179c-0.035,0.048-0.096,0.091-0.179,0.126c-0.084,0.036-0.197,0.062-0.338,0.079
			c-0.142,0.018-0.317,0.027-0.53,0.027c-0.212,0-0.389-0.009-0.529-0.027c-0.143-0.018-0.254-0.043-0.338-0.079
			c-0.085-0.036-0.144-0.078-0.179-0.126c-0.036-0.048-0.054-0.107-0.054-0.179V12.361h-5.353v10.454
			c0,0.071-0.017,0.131-0.052,0.179c-0.036,0.048-0.096,0.091-0.18,0.126c-0.083,0.036-0.197,0.062-0.338,0.079
			c-0.141,0.018-0.318,0.027-0.529,0.027c-0.212,0-0.391-0.009-0.531-0.027c-0.141-0.018-0.253-0.043-0.338-0.079
			c-0.083-0.036-0.144-0.078-0.179-0.126c-0.034-0.048-0.053-0.107-0.053-0.179V12.361h-1.683c-0.141,0-0.246-0.07-0.317-0.212
			c-0.071-0.141-0.106-0.371-0.106-0.689c0-0.168,0.008-0.309,0.025-0.424c0.018-0.115,0.045-0.21,0.081-0.285
			c0.035-0.075,0.079-0.127,0.133-0.159c0.052-0.031,0.113-0.046,0.185-0.046h1.683V9.42c0-0.822,0.08-1.526,0.238-2.114
			c0.16-0.588,0.396-1.071,0.716-1.451c0.317-0.379,0.713-0.66,1.185-0.841c0.474-0.181,1.023-0.272,1.651-0.272
			c0.388,0,0.729,0.034,1.02,0.1c0.292,0.066,0.529,0.139,0.716,0.218c0.089,0.036,0.158,0.08,0.212,0.133
			c0.052,0.053,0.098,0.121,0.132,0.205c0.035,0.084,0.06,0.186,0.073,0.305c0.014,0.119,0.02,0.263,0.02,0.43
			c0,0.283-0.022,0.489-0.065,0.617c-0.046,0.128-0.125,0.192-0.238,0.192c-0.071,0-0.153-0.02-0.246-0.06
			c-0.092-0.04-0.21-0.084-0.351-0.132c-0.141-0.049-0.301-0.093-0.478-0.133s-0.379-0.06-0.608-0.06
			c-0.654,0-1.114,0.225-1.378,0.676c-0.266,0.45-0.398,1.17-0.398,2.16v1.153h5.353V9.261c0-0.822,0.082-1.526,0.245-2.113
			c0.164-0.587,0.404-1.072,0.723-1.451c0.318-0.38,0.714-0.66,1.186-0.841c0.473-0.181,1.022-0.271,1.65-0.271
			c0.38,0,0.717,0.033,1.013,0.099c0.297,0.065,0.537,0.139,0.723,0.218c0.079,0.036,0.147,0.079,0.205,0.133
			c0.058,0.052,0.101,0.122,0.133,0.205c0.029,0.083,0.053,0.186,0.065,0.304C445.576,5.664,445.583,5.808,445.583,5.975z"/>
		<path fill="#4E4D4D" d="M455.786,22.829c0,0.105-0.036,0.185-0.106,0.238c-0.071,0.053-0.169,0.093-0.292,0.12
			c-0.123,0.026-0.305,0.04-0.543,0.04c-0.23,0-0.413-0.014-0.55-0.04c-0.137-0.027-0.237-0.066-0.299-0.12
			c-0.063-0.054-0.093-0.133-0.093-0.238v-1.193c-0.521,0.557-1.102,0.99-1.742,1.298c-0.64,0.309-1.318,0.464-2.033,0.464
			c-0.628,0-1.195-0.082-1.703-0.245s-0.94-0.4-1.299-0.708c-0.358-0.31-0.636-0.689-0.834-1.14
			c-0.199-0.45-0.299-0.962-0.299-1.536c0-0.672,0.139-1.255,0.411-1.749c0.274-0.495,0.666-0.906,1.179-1.232
			c0.512-0.327,1.14-0.572,1.882-0.735c0.743-0.164,1.576-0.246,2.504-0.246h1.644v-0.927c0-0.459-0.049-0.866-0.146-1.22
			c-0.099-0.353-0.255-0.646-0.471-0.881c-0.216-0.233-0.497-0.411-0.842-0.53c-0.343-0.119-0.769-0.179-1.272-0.179
			c-0.539,0-1.021,0.064-1.45,0.192c-0.428,0.128-0.803,0.269-1.126,0.423c-0.323,0.155-0.593,0.296-0.808,0.424
			c-0.217,0.128-0.379,0.192-0.484,0.192c-0.07,0-0.132-0.018-0.186-0.053c-0.052-0.035-0.1-0.088-0.14-0.159
			s-0.067-0.161-0.085-0.271c-0.018-0.111-0.027-0.232-0.027-0.365c0-0.221,0.017-0.395,0.047-0.523
			c0.031-0.128,0.105-0.249,0.226-0.364c0.119-0.115,0.324-0.25,0.615-0.404c0.292-0.154,0.627-0.295,1.008-0.424
			c0.379-0.128,0.795-0.234,1.245-0.318c0.451-0.083,0.905-0.125,1.364-0.125c0.857,0,1.585,0.096,2.186,0.291
			c0.602,0.194,1.087,0.479,1.459,0.854c0.369,0.375,0.641,0.842,0.808,1.398c0.168,0.556,0.253,1.206,0.253,1.947V22.829z
			 M453.612,17.383h-1.868c-0.601,0-1.122,0.051-1.563,0.152c-0.442,0.102-0.809,0.252-1.1,0.451
			c-0.292,0.198-0.506,0.437-0.643,0.715c-0.137,0.278-0.207,0.598-0.207,0.96c0,0.619,0.197,1.11,0.592,1.478
			c0.393,0.366,0.942,0.549,1.648,0.549c0.573,0,1.107-0.146,1.597-0.437c0.49-0.292,1.004-0.738,1.544-1.339V17.383z"/>
		<path fill="#4E4D4D" d="M462.237,6.863c0,0.512-0.097,0.861-0.291,1.046c-0.194,0.186-0.553,0.278-1.073,0.278
			c-0.512,0-0.863-0.09-1.054-0.271c-0.189-0.181-0.286-0.523-0.286-1.027c0-0.512,0.098-0.861,0.293-1.047
			c0.194-0.185,0.553-0.278,1.073-0.278c0.512,0,0.863,0.091,1.054,0.271C462.141,6.017,462.237,6.36,462.237,6.863z
			 M461.985,22.815c0,0.071-0.018,0.131-0.053,0.179c-0.036,0.048-0.094,0.091-0.173,0.126s-0.188,0.062-0.331,0.079
			c-0.141,0.018-0.321,0.027-0.543,0.027c-0.212,0-0.389-0.009-0.529-0.027c-0.143-0.018-0.254-0.043-0.339-0.079
			c-0.084-0.036-0.141-0.078-0.172-0.126c-0.031-0.048-0.045-0.107-0.045-0.179V10.891c0-0.062,0.014-0.12,0.045-0.172
			s0.088-0.097,0.172-0.132c0.085-0.035,0.196-0.062,0.339-0.08c0.141-0.018,0.317-0.027,0.529-0.027
			c0.222,0,0.402,0.009,0.543,0.027c0.143,0.018,0.252,0.044,0.331,0.08s0.137,0.08,0.173,0.132
			c0.035,0.053,0.053,0.111,0.053,0.172V22.815z"/>
		<path fill="#4E4D4D" d="M472.996,11.672c0,0.194-0.004,0.358-0.013,0.49c-0.01,0.132-0.027,0.236-0.053,0.311
			c-0.026,0.075-0.061,0.133-0.101,0.172c-0.039,0.04-0.096,0.06-0.165,0.06c-0.071,0-0.157-0.02-0.259-0.06
			s-0.216-0.079-0.344-0.119c-0.13-0.04-0.272-0.077-0.433-0.113c-0.158-0.035-0.329-0.053-0.516-0.053
			c-0.22,0-0.437,0.044-0.649,0.132c-0.211,0.089-0.436,0.234-0.668,0.438c-0.235,0.204-0.48,0.472-0.736,0.808
			s-0.539,0.746-0.848,1.232v7.843c0,0.071-0.019,0.131-0.054,0.179c-0.034,0.048-0.092,0.091-0.171,0.126s-0.19,0.062-0.333,0.079
			c-0.141,0.018-0.321,0.027-0.543,0.027c-0.211,0-0.387-0.009-0.529-0.027c-0.141-0.018-0.253-0.043-0.338-0.079
			c-0.084-0.036-0.142-0.078-0.173-0.126c-0.03-0.048-0.045-0.107-0.045-0.179V10.891c0-0.07,0.013-0.131,0.04-0.179
			c0.025-0.048,0.079-0.092,0.158-0.132c0.079-0.04,0.181-0.066,0.304-0.08c0.125-0.013,0.287-0.02,0.491-0.02
			c0.194,0,0.354,0.007,0.484,0.02c0.127,0.014,0.228,0.04,0.297,0.08c0.071,0.04,0.122,0.084,0.152,0.132
			C467.985,10.76,468,10.82,468,10.891v1.736c0.327-0.477,0.636-0.866,0.921-1.166c0.289-0.3,0.56-0.537,0.815-0.709
			c0.256-0.172,0.51-0.292,0.763-0.357c0.25-0.066,0.505-0.099,0.762-0.099c0.115,0,0.245,0.006,0.391,0.02
			c0.146,0.013,0.298,0.037,0.456,0.073c0.159,0.036,0.303,0.075,0.432,0.119s0.218,0.089,0.271,0.132
			c0.054,0.044,0.089,0.086,0.107,0.126c0.018,0.04,0.032,0.091,0.046,0.153c0.013,0.062,0.022,0.152,0.026,0.271
			C472.993,11.308,472.996,11.469,472.996,11.672z"/>
		<path fill="#4E4D4D" d="M482.507,19.569c0,0.609-0.11,1.153-0.338,1.63c-0.225,0.477-0.545,0.878-0.959,1.205
			c-0.416,0.327-0.91,0.574-1.484,0.743c-0.573,0.167-1.206,0.251-1.896,0.251c-0.423,0-0.827-0.033-1.211-0.099
			s-0.729-0.15-1.034-0.252c-0.305-0.101-0.563-0.208-0.774-0.318c-0.212-0.11-0.368-0.209-0.464-0.298
			c-0.097-0.088-0.168-0.212-0.212-0.371c-0.044-0.159-0.065-0.375-0.065-0.648c0-0.168,0.008-0.31,0.025-0.425
			c0.018-0.114,0.04-0.208,0.065-0.278c0.028-0.07,0.064-0.121,0.112-0.152c0.05-0.031,0.104-0.047,0.166-0.047
			c0.097,0,0.241,0.061,0.431,0.179c0.19,0.119,0.425,0.25,0.703,0.391c0.278,0.142,0.606,0.272,0.987,0.392
			c0.38,0.118,0.816,0.179,1.311,0.179c0.372,0,0.707-0.041,1.007-0.119c0.301-0.08,0.562-0.197,0.783-0.351
			c0.22-0.155,0.391-0.352,0.51-0.59c0.119-0.239,0.18-0.521,0.18-0.848c0-0.335-0.088-0.618-0.259-0.848
			c-0.174-0.23-0.401-0.433-0.683-0.609c-0.283-0.177-0.601-0.334-0.955-0.471c-0.352-0.137-0.717-0.281-1.092-0.431
			c-0.377-0.15-0.742-0.321-1.101-0.51c-0.358-0.19-0.679-0.422-0.96-0.696c-0.283-0.273-0.511-0.601-0.684-0.98
			c-0.171-0.379-0.258-0.834-0.258-1.365c0-0.468,0.092-0.916,0.271-1.345c0.181-0.428,0.452-0.803,0.814-1.126
			c0.362-0.322,0.815-0.581,1.358-0.775c0.544-0.195,1.177-0.291,1.902-0.291c0.317,0,0.636,0.026,0.954,0.079
			c0.317,0.053,0.604,0.119,0.86,0.198c0.256,0.08,0.475,0.166,0.656,0.259c0.181,0.092,0.317,0.174,0.409,0.245
			c0.094,0.071,0.156,0.133,0.188,0.185c0.03,0.053,0.052,0.113,0.065,0.179c0.014,0.066,0.026,0.148,0.04,0.245
			s0.02,0.216,0.02,0.358c0,0.15-0.006,0.28-0.02,0.391c-0.014,0.111-0.035,0.201-0.065,0.271c-0.031,0.07-0.07,0.122-0.113,0.153
			c-0.044,0.031-0.094,0.046-0.146,0.046c-0.079,0-0.195-0.049-0.345-0.146c-0.15-0.097-0.345-0.201-0.583-0.312
			c-0.238-0.11-0.519-0.214-0.842-0.311c-0.322-0.097-0.692-0.145-1.105-0.145c-0.372,0-0.699,0.042-0.98,0.125
			c-0.283,0.084-0.515,0.204-0.696,0.358c-0.181,0.155-0.317,0.338-0.411,0.55c-0.093,0.212-0.138,0.442-0.138,0.688
			c0,0.345,0.087,0.634,0.264,0.868c0.177,0.234,0.406,0.439,0.689,0.616c0.282,0.177,0.605,0.336,0.966,0.477
			c0.363,0.142,0.732,0.287,1.107,0.437c0.375,0.151,0.747,0.318,1.113,0.504c0.366,0.185,0.69,0.411,0.974,0.675
			s0.51,0.583,0.683,0.954C482.422,18.615,482.507,19.056,482.507,19.569z"/>
		<path fill="#4E4D4D" d="M488.524,21.252c0,0.273-0.014,0.525-0.04,0.755c-0.025,0.229-0.069,0.446-0.131,0.649
			c-0.063,0.203-0.144,0.404-0.245,0.603c-0.102,0.199-0.229,0.409-0.379,0.629l-1.816,2.73c-0.043,0.062-0.094,0.114-0.151,0.158
			c-0.058,0.045-0.129,0.085-0.212,0.12c-0.084,0.035-0.181,0.059-0.292,0.073c-0.11,0.013-0.249,0.02-0.417,0.02
			c-0.15,0-0.276-0.007-0.378-0.02c-0.101-0.014-0.174-0.035-0.219-0.066c-0.044-0.031-0.068-0.073-0.072-0.127
			c-0.004-0.053,0.011-0.114,0.047-0.185l1.762-3.644v-1.696c0-0.239,0.024-0.429,0.072-0.57c0.048-0.141,0.126-0.248,0.233-0.318
			c0.104-0.07,0.237-0.119,0.396-0.146c0.158-0.026,0.353-0.04,0.583-0.04c0.22,0,0.41,0.013,0.57,0.04
			c0.159,0.027,0.29,0.076,0.392,0.146c0.103,0.07,0.178,0.177,0.227,0.318C488.501,20.823,488.524,21.013,488.524,21.252z"/>
		<path fill="#4E4D4D" d="M511.75,22.206c0,0.176-0.03,0.327-0.089,0.451c-0.058,0.123-0.137,0.225-0.233,0.304
			c-0.096,0.08-0.203,0.137-0.322,0.172c-0.12,0.036-0.233,0.054-0.353,0.054h-0.756c-0.239,0-0.445-0.025-0.623-0.073
			c-0.181-0.049-0.348-0.137-0.507-0.265c-0.16-0.129-0.318-0.303-0.481-0.523c-0.16-0.221-0.327-0.503-0.509-0.849l-5.229-9.751
			c-0.274-0.503-0.547-1.031-0.826-1.583c-0.277-0.552-0.539-1.089-0.777-1.61h-0.025c0.018,0.636,0.029,1.285,0.039,1.947
			c0.009,0.663,0.013,1.321,0.013,1.974v10.348c0,0.062-0.018,0.121-0.058,0.179c-0.034,0.058-0.096,0.102-0.185,0.133
			s-0.208,0.058-0.35,0.079c-0.145,0.022-0.332,0.034-0.553,0.034c-0.224,0-0.41-0.012-0.555-0.034
			c-0.142-0.021-0.258-0.048-0.341-0.079c-0.085-0.031-0.146-0.075-0.181-0.133c-0.04-0.058-0.058-0.117-0.058-0.179V6.982
			c0-0.354,0.102-0.605,0.3-0.755c0.204-0.151,0.42-0.225,0.658-0.225h1.122c0.265,0,0.485,0.022,0.662,0.066
			c0.177,0.043,0.335,0.116,0.478,0.218c0.141,0.101,0.277,0.243,0.41,0.424c0.133,0.182,0.273,0.409,0.415,0.682l4.023,7.526
			c0.248,0.459,0.486,0.907,0.716,1.344c0.229,0.437,0.454,0.868,0.666,1.292c0.212,0.424,0.425,0.841,0.637,1.252
			c0.208,0.411,0.414,0.823,0.618,1.239h0.014c-0.018-0.699-0.026-1.424-0.031-2.18c-0.004-0.755-0.009-1.481-0.009-2.179V6.386
			c0-0.062,0.019-0.119,0.058-0.172c0.036-0.053,0.098-0.099,0.185-0.139c0.094-0.04,0.207-0.068,0.354-0.086
			c0.142-0.018,0.33-0.027,0.565-0.027c0.202,0,0.379,0.009,0.529,0.027c0.15,0.018,0.265,0.046,0.35,0.086
			c0.083,0.04,0.145,0.086,0.18,0.139c0.04,0.053,0.058,0.111,0.058,0.172V22.206z"/>
		<path fill="#4E4D4D" d="M527.755,20.722c0,0.142-0.004,0.265-0.014,0.371c-0.008,0.107-0.021,0.199-0.044,0.278
			c-0.021,0.08-0.053,0.151-0.089,0.212c-0.035,0.062-0.097,0.137-0.185,0.225c-0.089,0.088-0.273,0.223-0.557,0.404
			c-0.282,0.181-0.632,0.357-1.052,0.529c-0.419,0.173-0.899,0.318-1.444,0.438c-0.543,0.119-1.138,0.178-1.784,0.178
			c-1.112,0-2.115-0.185-3.013-0.556c-0.895-0.371-1.659-0.918-2.292-1.643c-0.631-0.725-1.116-1.619-1.455-2.684
			c-0.341-1.064-0.514-2.29-0.514-3.677c0-1.422,0.185-2.689,0.553-3.802c0.365-1.113,0.877-2.056,1.541-2.829
			c0.662-0.773,1.457-1.363,2.381-1.769c0.922-0.406,1.942-0.61,3.064-0.61c0.494,0,0.976,0.046,1.445,0.139
			c0.466,0.093,0.9,0.21,1.297,0.352c0.398,0.141,0.751,0.305,1.061,0.49c0.309,0.186,0.525,0.338,0.645,0.457
			s0.194,0.21,0.229,0.271c0.036,0.062,0.065,0.135,0.088,0.219c0.023,0.083,0.041,0.183,0.053,0.298
			c0.014,0.114,0.019,0.251,0.019,0.41c0,0.177-0.009,0.327-0.026,0.45c-0.018,0.124-0.045,0.228-0.081,0.312
			c-0.034,0.084-0.078,0.146-0.127,0.185c-0.048,0.041-0.105,0.061-0.177,0.061c-0.127,0-0.301-0.087-0.521-0.259
			c-0.22-0.172-0.507-0.362-0.861-0.57c-0.348-0.208-0.771-0.397-1.275-0.569c-0.504-0.173-1.104-0.258-1.806-0.258
			c-0.764,0-1.459,0.152-2.086,0.457c-0.626,0.304-1.161,0.752-1.602,1.344c-0.446,0.592-0.791,1.314-1.033,2.167
			c-0.245,0.853-0.368,1.826-0.368,2.922c0,1.086,0.119,2.047,0.354,2.881c0.233,0.835,0.573,1.533,1.011,2.093
			c0.44,0.561,0.979,0.986,1.62,1.272c0.637,0.288,1.361,0.431,2.169,0.431c0.684,0,1.28-0.083,1.792-0.252
			c0.514-0.167,0.947-0.355,1.304-0.563c0.361-0.208,0.658-0.396,0.889-0.563c0.229-0.167,0.414-0.251,0.547-0.251
			c0.062,0,0.115,0.013,0.159,0.04c0.044,0.026,0.079,0.077,0.106,0.152c0.026,0.075,0.048,0.179,0.062,0.311
			C527.751,20.351,527.755,20.519,527.755,20.722z"/>
		<path fill="#4E4D4D" d="M541.655,6.982c0,0.167-0.01,0.313-0.027,0.437c-0.019,0.124-0.044,0.222-0.084,0.298
			c-0.04,0.074-0.088,0.13-0.146,0.165c-0.058,0.036-0.123,0.054-0.194,0.054h-4.821v14.866c0,0.071-0.018,0.132-0.054,0.186
			c-0.035,0.053-0.097,0.095-0.186,0.126c-0.088,0.031-0.203,0.058-0.348,0.079c-0.146,0.022-0.333,0.034-0.553,0.034
			c-0.213,0-0.393-0.012-0.544-0.034c-0.15-0.021-0.27-0.048-0.358-0.079c-0.087-0.031-0.148-0.073-0.185-0.126
			c-0.035-0.053-0.053-0.115-0.053-0.186V7.936h-4.823c-0.071,0-0.133-0.018-0.189-0.054c-0.058-0.035-0.106-0.09-0.142-0.165
			c-0.034-0.076-0.062-0.175-0.084-0.298c-0.021-0.124-0.035-0.27-0.035-0.437c0-0.168,0.014-0.316,0.035-0.444
			c0.022-0.128,0.05-0.232,0.084-0.311c0.035-0.08,0.084-0.137,0.142-0.172c0.057-0.035,0.118-0.053,0.189-0.053h11.924
			c0.071,0,0.137,0.018,0.194,0.053c0.059,0.036,0.106,0.092,0.146,0.172c0.04,0.079,0.065,0.183,0.084,0.311
			C541.645,6.666,541.655,6.814,541.655,6.982z"/>
		<path fill="#4E4D4D" d="M557.024,16.813c0,1.042-0.15,1.972-0.456,2.789c-0.305,0.817-0.741,1.509-1.307,2.074
			c-0.564,0.565-1.254,0.994-2.067,1.285c-0.813,0.292-1.736,0.438-2.769,0.438c-0.944,0-1.807-0.137-2.584-0.411
			c-0.777-0.274-1.444-0.678-2.001-1.212c-0.556-0.534-0.984-1.203-1.285-2.007c-0.3-0.804-0.45-1.732-0.45-2.783V6.346
			c0-0.071,0.018-0.133,0.052-0.186c0.036-0.053,0.099-0.095,0.188-0.126c0.088-0.031,0.202-0.058,0.344-0.08
			c0.143-0.022,0.327-0.033,0.557-0.033c0.212,0,0.393,0.011,0.543,0.033c0.15,0.022,0.27,0.049,0.354,0.08
			c0.083,0.031,0.141,0.073,0.176,0.126c0.036,0.053,0.054,0.115,0.054,0.186v10.361c0,0.795,0.098,1.488,0.292,2.08
			c0.194,0.593,0.478,1.084,0.843,1.478c0.368,0.393,0.81,0.689,1.325,0.888s1.095,0.298,1.74,0.298
			c0.663,0,1.255-0.098,1.771-0.292c0.517-0.195,0.953-0.486,1.312-0.875c0.357-0.388,0.631-0.869,0.821-1.444
			c0.19-0.574,0.283-1.246,0.283-2.014V6.346c0-0.071,0.018-0.133,0.052-0.186c0.036-0.053,0.098-0.095,0.187-0.126
			c0.087-0.031,0.208-0.058,0.353-0.08c0.146-0.022,0.327-0.033,0.548-0.033c0.212,0,0.394,0.011,0.539,0.033
			c0.146,0.022,0.26,0.049,0.345,0.08s0.146,0.073,0.186,0.126c0.04,0.053,0.058,0.115,0.058,0.186V16.813z"/>
		<path fill="#4E4D4D" d="M167.321,39.82h20.39v21.432h-1.621v-1.186h-17.221v1.186h-1.548V39.82z M168.869,58.566h17.221V41.32
			h-17.221V58.566z M170.054,54.841c1.887-0.313,4.693-0.846,7.499-1.354l0.072,1.089c-2.516,0.557-5.08,1.112-6.699,1.427
			c-0.025,0.194-0.147,0.29-0.291,0.361L170.054,54.841z M179.366,45.964c0.217,2.225,0.557,4.306,0.992,6
			c0.847-1.402,1.499-2.999,1.935-4.766l1.692,0.411c-0.048,0.17-0.192,0.242-0.484,0.242c-0.581,2.129-1.474,4.063-2.612,5.709
			c0.581,1.45,1.403,2.516,2.225,2.516c0.363,0,0.605-1.041,0.774-2.589c0.266,0.266,0.774,0.605,1.064,0.773
			c-0.267,2.226-0.846,3.266-1.765,3.266c-0.17,0-0.339-0.024-0.533-0.098c-1.16-0.217-2.031-1.161-2.732-2.611
			c-0.992,1.186-2.153,2.177-3.459,2.951c-0.193-0.267-0.605-0.75-0.895-0.991c1.45-0.823,2.732-1.96,3.797-3.338
			c-0.653-2.008-1.088-4.62-1.38-7.475h-7.691v-1.257h7.571c-0.072-0.894-0.146-1.814-0.194-2.733l1.935,0.097
			c-0.024,0.194-0.192,0.313-0.483,0.362c0.024,0.775,0.073,1.523,0.145,2.274h5.515v1.257H179.366z M171.215,47.609h5.465v4.789
			h-5.465V47.609z M175.448,51.334v-2.66H172.4v2.66H175.448z M181.374,41.757c0.966,0.411,2.128,1.087,2.709,1.668l-0.773,0.896
			c-0.581-0.556-1.743-1.308-2.709-1.767L181.374,41.757z"/>
		<path fill="#4E4D4D" d="M203.327,58.445h21.938v1.621h-21.938V58.445z M224.588,43.619v1.597h-20.415v-1.597h9.217v-4.933
			l2.152,0.144c-0.024,0.17-0.145,0.292-0.483,0.34v4.449H224.588z M208.987,46.545c1.257,3.265,2.127,7.426,2.274,10.208
			c-0.169,0-0.339,0.023-1.67,0.361c-0.095-2.733-0.967-6.942-2.151-10.182L208.987,46.545z M221.733,46.86
			c-0.071,0.168-0.29,0.313-0.604,0.338c-0.726,3.193-2.08,7.91-3.217,10.57l-1.45-0.412c1.064-2.756,2.297-7.618,2.925-11.004
			L221.733,46.86z"/>
		<path fill="#4E4D4D" d="M247.486,48.746c0.847,2.153,2.056,4.015,3.628,5.587c1.572-1.548,2.781-3.434,3.628-5.732l2.032,0.678
			c-0.049,0.146-0.267,0.243-0.557,0.219c-0.943,2.369-2.25,4.304-3.87,5.925c2.587,2.104,5.949,3.507,10.061,4.185
			c-0.362,0.362-0.847,1.089-1.088,1.549c-4.209-0.822-7.594-2.321-10.255-4.596c-2.685,2.201-6.119,3.677-10.231,4.668
			c-0.192-0.411-0.629-1.113-0.944-1.476c4.016-0.873,7.378-2.226,9.99-4.306c-1.669-1.718-2.975-3.798-3.942-6.217L247.486,48.746z
			 M248.647,45.215c-0.073,0.194-0.291,0.217-0.532,0.194c-1.669,2.151-4.307,4.329-6.677,5.754
			c-0.266-0.361-0.846-0.942-1.209-1.231c2.298-1.235,4.958-3.363,6.482-5.539L248.647,45.215z M261.804,41.949v1.597h-21.477
			v-1.597h9.869v-3.288l2.128,0.119c-0.024,0.17-0.145,0.292-0.483,0.341v2.828H261.804z M260.595,50.947
			c-1.306-1.62-4.16-3.989-6.53-5.635l1.33-0.967c2.322,1.548,5.224,3.844,6.627,5.465L260.595,50.947z"/>
		<path fill="#4E4D4D" d="M281.871,48.36v7.956c1.863,2.879,5.296,2.879,9.894,2.879c2.638,0,5.733-0.048,7.62-0.17
			c-0.195,0.363-0.438,1.113-0.535,1.597c-1.644,0.049-4.255,0.098-6.673,0.098c-5.298,0-8.611,0-11.006-3.023
			c-1.282,1.113-2.612,2.178-3.702,2.999c0,0.217-0.048,0.313-0.217,0.387l-0.918-1.741c1.184-0.774,2.66-1.839,3.966-2.903v-6.529
			h-3.651V48.36H281.871z M278.219,39.24c1.572,1.112,3.387,2.782,4.161,4.017l-1.209,1.113c-0.773-1.234-2.54-2.977-4.112-4.136
			L278.219,39.24z M291.814,44.83c-1.523-0.751-3.386-1.573-4.958-2.154l1.064-0.943c1.063,0.387,2.296,0.871,3.481,1.403
			c1.283-0.581,2.637-1.33,3.676-2.081h-10.594v-1.329h12.264l0.267-0.073l1.233,0.797c-0.071,0.098-0.241,0.17-0.386,0.195
			c-1.234,1.064-3.095,2.272-4.96,3.168c0.751,0.338,1.427,0.7,1.984,1.017h3.121v11.003c0,1.596-0.508,1.767-4.112,1.767
			c-0.074-0.436-0.267-0.992-0.461-1.378c0.702,0.023,1.38,0.046,1.862,0.046c1.041,0,1.162,0,1.162-0.435v-2.467h-4.548v4.087
			h-1.474v-4.087h-4.379v4.184h-1.545V44.83H291.814z M290.435,46.134h-4.379v2.298h4.379V46.134z M286.055,52.085h4.379v-2.396
			h-4.379V52.085z M296.457,48.433v-2.298h-4.548v2.298H296.457z M291.908,52.085h4.548v-2.396h-4.548V52.085z"/>
		<path fill="#4E4D4D" d="M335.441,47.466h-9.459c1.574,5.778,4.693,10.23,9.845,12.141c-0.413,0.362-0.943,1.041-1.209,1.524
			c-5.055-2.08-8.126-6.363-9.918-12.19c-1.112,4.788-3.749,9.529-9.987,12.215c-0.242-0.436-0.751-1.017-1.162-1.379
			c6.384-2.588,8.78-7.427,9.698-12.311h-9.334v-1.67h9.601c0.314-2.515,0.29-4.983,0.314-7.086l2.274,0.12
			c-0.025,0.218-0.219,0.34-0.534,0.411c-0.023,1.912-0.048,4.185-0.337,6.556h10.208V47.466z"/>
		<path fill="#4E4D4D" d="M372.148,54.865v1.38h-9.943v3.144c0,1.742-0.725,1.767-4.886,1.767c-0.071-0.412-0.338-0.992-0.557-1.403
			c0.897,0.024,1.767,0.048,2.397,0.048c1.305,0,1.45,0,1.45-0.459v-3.096h-9.942v-1.38h9.942v-1.475l1.259,0.072
			c1.064-0.46,2.151-1.064,3.047-1.669h-9.894v-1.257h11.634l0.267-0.097l1.208,0.821c-0.071,0.097-0.241,0.17-0.362,0.194
			c-1.402,1.04-3.58,2.272-5.563,3.071v0.338H372.148z M352.603,48.746v3.097h-1.546v-4.401h1.958l-0.483-7.694l1.305,0.34
			c1.137-0.34,2.444-0.824,3.266-1.186l1.064,1.113c-0.073,0.073-0.17,0.097-0.266,0.097c-0.048,0-0.123,0-0.172-0.024
			c-0.892,0.313-2.393,0.725-3.603,1.016l0.075,1.113h3.722V43.4h-3.626l0.071,1.429h3.676v1.159h-3.603l0.096,1.453h13.812
			l0.145-1.453h-3.701V44.83h3.797l0.123-1.429h-3.798v-1.184h3.868l0.097-1.429h-4.063v-1.16h5.661
			c-0.122,2.492-0.338,5.66-0.557,7.813h1.937v4.401h-1.598v-3.097H352.603z M364.067,39.458c-0.048,0.146-0.216,0.219-0.46,0.194
			c-0.338,0.386-0.724,0.773-1.162,1.16c0.557,0.388,1.043,0.775,1.381,1.112l-0.872,0.824c-0.338-0.364-0.846-0.774-1.427-1.209
			c-0.773,0.581-1.594,1.113-2.395,1.499c-0.193-0.216-0.604-0.581-0.847-0.772c0.751-0.364,1.55-0.847,2.274-1.38
			c-0.532-0.362-1.086-0.676-1.62-0.968l0.848-0.724c0.53,0.265,1.113,0.603,1.691,0.942c0.411-0.364,0.799-0.775,1.112-1.186
			L364.067,39.458z M359.983,43.375c0.53,0.268,1.086,0.605,1.642,0.97c0.484-0.438,0.918-0.896,1.259-1.356l1.475,0.532
			c-0.048,0.146-0.264,0.195-0.483,0.17c-0.366,0.435-0.798,0.87-1.284,1.305c0.582,0.436,1.112,0.872,1.475,1.259l-0.87,0.796
			c-0.361-0.386-0.895-0.845-1.523-1.304c-0.773,0.605-1.646,1.137-2.442,1.524c-0.194-0.194-0.606-0.581-0.87-0.775
			c0.771-0.362,1.594-0.87,2.37-1.426c-0.534-0.363-1.089-0.7-1.598-0.992L359.983,43.375z"/>
		<path fill="#4E4D4D" d="M388.005,39.82h20.391v21.432h-1.621v-1.186h-17.22v1.186h-1.55V39.82z M389.555,58.566h17.22V41.32
			h-17.22V58.566z M390.739,54.841c1.885-0.313,4.692-0.846,7.5-1.354l0.07,1.089c-2.515,0.557-5.079,1.112-6.699,1.427
			c-0.022,0.194-0.146,0.29-0.29,0.361L390.739,54.841z M400.051,45.964c0.218,2.225,0.557,4.306,0.992,6
			c0.847-1.402,1.498-2.999,1.933-4.766l1.694,0.411c-0.048,0.17-0.191,0.242-0.484,0.242c-0.58,2.129-1.474,4.063-2.612,5.709
			c0.582,1.45,1.402,2.516,2.225,2.516c0.364,0,0.605-1.041,0.774-2.589c0.268,0.266,0.774,0.605,1.064,0.773
			c-0.268,2.226-0.845,3.266-1.764,3.266c-0.171,0-0.34-0.024-0.534-0.098c-1.161-0.217-2.032-1.161-2.731-2.611
			c-0.992,1.186-2.154,2.177-3.46,2.951c-0.193-0.267-0.603-0.75-0.893-0.991c1.449-0.823,2.732-1.96,3.797-3.338
			c-0.654-2.008-1.09-4.62-1.381-7.475h-7.689v-1.257h7.57c-0.072-0.894-0.146-1.814-0.194-2.733l1.935,0.097
			c-0.022,0.194-0.191,0.313-0.481,0.362c0.022,0.775,0.071,1.523,0.143,2.274h5.516v1.257H400.051z M391.9,47.609h5.465v4.789
			H391.9V47.609z M396.131,51.334v-2.66h-3.047v2.66H396.131z M402.058,41.757c0.968,0.411,2.128,1.087,2.709,1.668l-0.774,0.896
			c-0.578-0.556-1.74-1.308-2.707-1.767L402.058,41.757z"/>
		<path fill="#4E4D4D" d="M429.72,39.677l0.992,0.603c-0.022,0.073-0.098,0.17-0.169,0.218c-0.507,1.862-1.258,4.404-1.935,6.436
			c1.477,2.08,2.033,3.819,2.033,5.393c0,3.362-1.599,3.412-3.314,3.314c-0.025-0.39-0.146-0.992-0.339-1.355
			c0.313,0.023,0.605,0.023,0.871,0.023c0.749,0,1.377,0,1.377-2.08c-0.024-1.402-0.509-3.095-2.007-5.151
			c0.604-1.837,1.208-4.137,1.62-5.853h-2.709v19.954h-1.45V39.748h4.79L429.72,39.677z M433.786,42.989
			c0.604,0.34,1.305,0.824,1.837,1.259c0.315-0.703,0.579-1.427,0.798-2.202h-2.95c-0.749,1.5-1.716,2.855-2.758,3.798
			c-0.241-0.219-0.702-0.605-1.037-0.8c1.594-1.402,2.95-3.82,3.722-6.384l1.693,0.46c-0.048,0.167-0.217,0.24-0.482,0.24
			c-0.146,0.459-0.341,0.943-0.532,1.404h2.975l0.291-0.048c0.699,0.265,0.821,0.313,0.918,0.386
			c-0.048,0.121-0.121,0.194-0.192,0.265c-1.064,4.645-3.678,8.199-6.7,10.087c-0.194-0.34-0.605-0.848-0.943-1.113
			c1.136-0.653,2.25-1.621,3.217-2.831c-0.533-0.532-1.307-1.183-1.983-1.643l0.749-0.726c0.63,0.411,1.354,0.992,1.861,1.475
			c0.316-0.435,0.583-0.894,0.849-1.354c-0.532-0.508-1.309-1.089-1.983-1.475L433.786,42.989z M434.705,55.881
			c-0.848,1.621-2.226,3.339-3.532,4.452c-0.241-0.267-0.749-0.702-1.064-0.944c1.233-0.992,2.539-2.66,3.338-4.329
			c1.281,0.436,1.523,0.508,1.74,0.605C435.137,55.808,434.969,55.881,434.705,55.881z M444.741,54.044h-5.684v5.416
			c0,1.524-0.581,1.719-4.015,1.719c-0.073-0.41-0.315-1.016-0.533-1.402c1.232,0.023,2.297,0.023,2.613,0
			c0.316-0.024,0.387-0.072,0.387-0.364v-5.368h-5.419v-1.402h12.65V54.044z M434.389,50.246v-1.354h7.885v1.354H434.389z
			 M445.031,40.692l1.043,0.627c-0.027,0.122-0.171,0.17-0.269,0.219c-0.677,1.836-1.86,4.038-3.096,5.563
			c1.041,1.282,2.3,2.299,3.75,2.975c-0.338,0.291-0.798,0.823-1.017,1.234c-3.968-2.104-6.362-6.387-7.546-11.852l1.306-0.289
			c0.557,2.587,1.451,4.908,2.709,6.818c0.822-1.111,1.595-2.588,2.103-3.942h-3.434v-1.281h4.185L445.031,40.692z M444.571,60.139
			c-0.626-1.161-2.103-2.95-3.434-4.233l1.186-0.748c1.329,1.231,2.854,2.95,3.532,4.136L444.571,60.139z"/>
		<path fill="#4E4D4D" d="M482.854,52.955v1.33h-2.567v4.379h-1.642V57.55h-6.144v1.646c0,1.089-0.316,1.524-1.043,1.765
			c-0.749,0.243-2.031,0.243-4.085,0.243c-0.075-0.387-0.364-1.016-0.583-1.403c0.896,0.025,1.791,0.05,2.445,0.05
			c1.474,0,1.619,0,1.619-0.63v-1.67h-8.053v-1.282h8.053v-1.982h-10.133v-1.33h10.133v-1.839h-7.837v-1.233h7.837v-1.62h-7.111
			v-4.668h7.111v-1.523h-9.7v-1.379h9.7v-2.031l2.106,0.119c-0.026,0.194-0.148,0.316-0.46,0.341v1.571h9.893v1.379h-9.893v1.523
			h7.447v4.668h-7.447v1.62h7.785v3.072H482.854z M465.315,47.077h5.54V44.78h-5.54V47.077z M478.283,44.78h-5.781v2.297h5.781
			V44.78z M472.501,51.116v1.839h6.144v-1.839H472.501z M478.645,56.268v-1.982h-6.144v1.982H478.645z"/>
		<path fill="#4E4D4D" d="M519.439,42.749h-2.031c-0.676,1.813-1.691,3.361-2.974,4.669c1.574,1.183,3.41,2.079,5.416,2.611
			c-0.337,0.313-0.773,0.943-1.016,1.378c-2.055-0.629-3.919-1.646-5.513-2.95c-1.62,1.354-3.555,2.395-5.732,3.145
			c-0.172-0.291-0.486-0.727-0.75-1.064c-0.362,1.086-0.773,2.104-1.211,2.902l-1.16-0.581c0.507-1.041,1.015-2.637,1.426-4.088
			h-2.54V59.22c0,1.765-0.795,1.862-3.772,1.862c-0.069-0.411-0.29-1.089-0.529-1.524c0.627,0.024,1.233,0.049,1.691,0.049
			c0.968,0,1.064,0,1.064-0.387v-8.467c-0.968,2.491-2.323,4.961-3.722,6.388c-0.174-0.437-0.583-1.089-0.876-1.476
			c1.551-1.5,3.124-4.281,4.041-6.895h-3.847v-1.451h6.774c-1.21-1.137-3.581-2.612-5.563-3.506l1.016-1.04
			c0.772,0.338,1.594,0.749,2.395,1.184c1.014-0.725,2.03-1.691,2.804-2.613h-7.133v-1.426h8.392l0.291-0.073l1.21,0.751
			c-0.048,0.096-0.217,0.191-0.34,0.216c-0.941,1.283-2.491,2.782-3.988,3.871c0.844,0.532,1.568,1.064,2.102,1.548l-0.992,1.088
			h2.469l0.87,0.049c0,0.314-0.606,2.272-0.773,2.854c1.982-0.654,3.772-1.572,5.246-2.78c-0.939-0.97-1.788-2.056-2.464-3.242
			c-0.583,0.797-1.21,1.524-1.837,2.129c-0.318-0.292-0.897-0.727-1.284-0.968c1.717-1.5,3.289-4.063,4.159-6.7l1.982,0.579
			c-0.049,0.17-0.238,0.267-0.508,0.243c-0.216,0.605-0.481,1.209-0.795,1.815h8.003V42.749z M517.504,52.81l0.944,0.193
			c0,0.146-0.026,0.339-0.096,0.484c-0.438,4.522-0.87,6.313-1.55,6.989c-0.531,0.532-1.064,0.629-2.492,0.629
			c-0.508,0-1.112,0-1.717-0.048c-0.045-0.46-0.19-1.112-0.46-1.524c1.091,0.098,2.107,0.122,2.496,0.122
			c0.409,0,0.626-0.049,0.843-0.243c0.459-0.46,0.822-1.838,1.161-5.151h-3.944c-0.821,2.83-2.415,5.418-6.045,6.942
			c-0.168-0.362-0.627-0.919-0.968-1.21c3.073-1.207,4.571-3.313,5.371-5.732h-3.749v-1.402h4.111
			c0.192-0.846,0.313-1.742,0.41-2.612l2.08,0.194c-0.05,0.191-0.217,0.289-0.508,0.338c-0.097,0.701-0.194,1.378-0.335,2.08h4.084
			L517.504,52.81z M510.66,42.749l-0.098,0.168c0.681,1.308,1.599,2.493,2.711,3.533c1.017-1.064,1.864-2.275,2.443-3.701H510.66z"
			/>
		<path fill="#4E4D4D" d="M537.67,44.562v4.741c0,3.458-0.313,8.49-2.394,11.876c-0.271-0.289-0.919-0.798-1.285-0.967
			c1.938-3.193,2.128-7.691,2.128-10.909v-6.071h8.104v-4.546l2.103,0.12c-0.023,0.194-0.168,0.292-0.481,0.34v1.135h8.515v1.259
			h-8.515v1.693h9.31l0.918,0.073c0,0.363-1.015,3-1.69,4.113l-1.378-0.414c0.362-0.651,0.724-1.548,1.038-2.442h-7.884
			c-0.07,0.072-0.194,0.145-0.389,0.169v1.475l6.288-0.411l0.098,1.138l-6.386,0.41v0.919c0,0.605,0.243,0.751,1.744,0.751h5.49
			c1.017,0,1.211-0.219,1.307-1.572c0.336,0.216,0.941,0.386,1.352,0.459c-0.168,1.887-0.676,2.321-2.512,2.321h-5.712
			c-2.539,0-3.215-0.339-3.215-1.959v-0.821l-5.056,0.338l-0.071-1.138l5.127-0.337v-1.743H537.67z M544.997,51.479l0.8,0.29
			c0,0.121-0.07,0.194-0.119,0.243c-0.486,2.224-1.333,4.039-2.446,5.489c1.793,1.622,4.234,1.983,7.185,1.983
			c0.725,0,5.274,0,6.215-0.025c-0.217,0.34-0.46,0.993-0.53,1.404h-5.755c-3.388,0-6.05-0.461-7.984-2.347
			c-1.184,1.211-2.609,2.104-4.209,2.734c-0.169-0.34-0.508-0.871-0.773-1.162c1.524-0.532,2.93-1.402,4.09-2.611
			c-0.556-0.774-1.043-1.74-1.475-2.926c-0.535,0.771-1.114,1.474-1.697,2.03c-0.192-0.242-0.652-0.678-0.918-0.918
			c1.453-1.38,2.902-3.726,3.749-6.119l1.671,0.53c-0.05,0.146-0.216,0.218-0.487,0.218c-0.167,0.411-0.335,0.822-0.556,1.234h2.977
			L544.997,51.479z M541.127,52.761l-0.29,0.508c0.388,1.332,0.896,2.372,1.501,3.193c0.773-1.04,1.378-2.272,1.788-3.701H541.127z
			 M553.101,55.979c0,0.775,0.022,0.87,0.481,0.87c1.14,0,1.382,0,1.43-0.604c0.046-0.315,0.071-0.994,0.095-1.912
			c0.269,0.243,0.75,0.459,1.112,0.581c-0.071,2.201-0.097,3.146-1.837,3.146h-1.087c-1.62,0-1.62-0.969-1.62-2.227V52.81h-2.88
			v0.727c0,1.597-0.41,3.555-2.323,4.981c-0.194-0.265-0.724-0.772-1.016-0.968c1.67-1.233,1.982-2.758,1.982-4.063v-1.982h5.662
			V55.979z"/>
	</g>
	<g>
		<g>
			<path fill="#4E4D4D" d="M78.53,0c0,0,0.015,0.242,0.043,0.706c0.031,0.459,0.089,1.144,0.137,2.005
				c0.104,1.731,0.238,4.191,0.349,7.15c0.058,1.484,0.119,3.083,0.159,4.788c0.044,1.691,0.102,3.48,0.124,5.331
				c0.026,1.85,0.077,3.763,0.08,5.706c0.011,1.942,0.024,3.917,0.036,5.896c-0.011,1.97-0.022,3.94-0.031,5.887
				c-0.004,1.944-0.058,3.855-0.082,5.707c-0.024,1.854-0.078,3.639-0.126,5.339c-0.04,1.691-0.1,3.299-0.157,4.778
				c-0.113,2.959-0.248,5.429-0.351,7.16c-0.048,0.86-0.106,1.535-0.137,2.004c-0.029,0.46-0.043,0.707-0.043,0.707
				s-0.023-0.247-0.056-0.707c-0.029-0.469-0.088-1.144-0.132-2.004c-0.104-1.731-0.241-4.201-0.352-7.16
				c-0.057-1.479-0.119-3.087-0.159-4.778c-0.047-1.7-0.102-3.485-0.124-5.339c-0.025-1.851-0.082-3.763-0.082-5.707
				c-0.011-1.947-0.02-3.917-0.028-5.887c0.009-1.979,0.017-3.953,0.031-5.896c0.004-1.943,0.055-3.856,0.08-5.706
				c0.022-1.851,0.08-3.64,0.127-5.331c0.036-1.705,0.103-3.304,0.159-4.788c0.106-2.959,0.244-5.419,0.347-7.15
				c0.046-0.861,0.103-1.546,0.134-2.005C78.507,0.242,78.53,0,78.53,0z"/>
			<path fill="#4E4D4D" d="M94.718,61.768c0.811-2.437,1.632-4.876,2.467-7.305l2.52-7.278l2.563-7.273l2.595-7.251
				c0.868-2.416,1.735-4.832,2.623-7.243l2.644-7.239l5.364-14.437l0.872-2.346l0.87,2.346l5.364,14.437l2.643,7.239
				c0.888,2.411,1.758,4.827,2.624,7.243l2.597,7.251l2.562,7.273l2.522,7.278c0.834,2.429,1.651,4.868,2.459,7.305
				c-0.991-2.371-1.974-4.747-2.946-7.123l-2.89-7.146l-2.848-7.155l-2.816-7.177c-0.938-2.39-1.87-4.778-2.789-7.176l-2.767-7.19
				l-5.457-14.415h1.742l-5.462,14.406l-2.766,7.199c-0.918,2.398-1.853,4.787-2.787,7.176l-2.817,7.177l-2.849,7.155l-2.888,7.146
				C96.696,57.021,95.714,59.396,94.718,61.768z"/>
			<g>
				<path fill="#4E4D4D" d="M55.117,31.701c0,14.481-11.748,26.229-26.238,26.229c-14.486,0-26.233-11.748-26.233-26.229
					c0-14.495,11.748-26.233,26.233-26.233C43.37,5.468,55.117,17.207,55.117,31.701z"/>
				<g>
					<path fill="#4E4D4D" d="M0,21.486c0,0,0.048-0.155,0.154-0.46c0.115-0.295,0.248-0.754,0.479-1.329
						c0.117-0.292,0.25-0.61,0.391-0.968s0.332-0.728,0.517-1.139c0.181-0.411,0.411-0.834,0.653-1.294
						c0.238-0.459,0.525-0.932,0.826-1.426c1.206-1.992,2.937-4.266,5.322-6.497c2.378-2.217,5.467-4.346,9.199-5.883
						c3.723-1.542,8.104-2.499,12.759-2.349c2.323,0.074,4.702,0.401,7.068,1.024c0.595,0.141,1.178,0.344,1.769,0.521l0.223,0.066
						l0.053,0.022l0.076,0.017l0.103,0.04l0.427,0.164c0.283,0.102,0.569,0.211,0.856,0.309c0.574,0.248,1.168,0.49,1.743,0.76
						c0.563,0.282,1.148,0.53,1.698,0.857c2.229,1.224,4.379,2.699,6.3,4.496l0.715,0.667c0.234,0.229,0.462,0.473,0.691,0.707
						c0.471,0.468,0.89,0.98,1.334,1.475c0.843,1.016,1.654,2.084,2.369,3.219c2.917,4.488,4.677,9.832,5.01,15.273
						c0.312,5.45-0.841,10.952-3.208,15.749l-0.449,0.901l-0.488,0.879c-0.314,0.587-0.689,1.139-1.038,1.7
						c-0.747,1.1-1.533,2.159-2.396,3.144c-0.846,1.008-1.782,1.917-2.727,2.806c-0.974,0.848-1.961,1.673-3.012,2.389
						c-2.08,1.471-4.293,2.668-6.581,3.543c-2.279,0.888-4.602,1.514-6.903,1.837c-2.299,0.331-4.571,0.405-6.744,0.252
						c-2.178-0.164-4.257-0.558-6.199-1.101c-3.889-1.104-7.201-2.844-9.82-4.787c-0.669-0.468-1.268-0.981-1.858-1.462
						c-0.567-0.503-1.119-0.984-1.609-1.489c-1.011-0.979-1.844-1.974-2.572-2.879c-0.349-0.463-0.696-0.896-0.982-1.32
						c-0.288-0.433-0.57-0.826-0.804-1.215c-0.234-0.389-0.45-0.746-0.645-1.068C2.521,47.3,2.354,46.995,2.21,46.717
						c-0.307-0.539-0.49-0.984-0.634-1.268c-0.139-0.292-0.212-0.442-0.212-0.442s0.08,0.15,0.234,0.434
						c0.164,0.278,0.365,0.702,0.696,1.227c0.62,1.069,1.641,2.579,3.121,4.342c0.755,0.874,1.611,1.811,2.645,2.738
						c0.499,0.473,1.064,0.923,1.639,1.396c0.596,0.446,1.201,0.923,1.872,1.355c2.63,1.798,5.925,3.357,9.699,4.324
						c3.775,0.958,8.064,1.232,12.45,0.513c2.195-0.358,4.399-0.999,6.549-1.89c1.078-0.434,2.129-0.969,3.176-1.521
						c1.027-0.596,2.058-1.215,3.025-1.93c3.931-2.809,7.243-6.727,9.447-11.271c2.217-4.544,3.272-9.733,2.963-14.861
						c-0.294-5.114-1.928-10.157-4.666-14.406c-2.709-4.275-6.463-7.773-10.688-10.105c-0.514-0.31-1.066-0.552-1.596-0.83
						c-0.537-0.265-1.073-0.486-1.612-0.725c-0.285-0.115-0.572-0.221-0.857-0.331l-0.419-0.159l-0.106-0.04
						c-0.033-0.017-0.013-0.008-0.033-0.017l-0.055-0.014L38.64,3.166c-0.561-0.176-1.108-0.389-1.674-0.529
						c-2.239-0.631-4.5-0.999-6.72-1.113c-4.442-0.221-8.672,0.574-12.311,1.957c-1.824,0.688-3.498,1.537-5.026,2.451
						C11.381,6.85,10.003,7.843,8.8,8.89c-2.418,2.076-4.211,4.253-5.474,6.169c-1.272,1.926-2.098,3.542-2.597,4.673
						c-0.266,0.561-0.425,1.011-0.548,1.302C0.06,21.34,0,21.486,0,21.486z"/>
				</g>
			</g>
		</g>
	</g>
</g>
</svg>
